/* XPM */
static char *result[] = {
/* columns rows colors chars-per-pixel */
"64 64 6 1 ",
"  c #000409",
". c #151F2D",
"X c #3D6E70",
"o c #3CA370",
"O c #34BB78",
"+ c #8FDE5D",
/* pixels */
"++++++++++++++++++++++++++++++++++++++++++++++++++++++++++++++++",
"++++++++++++++++o+++++++++++++++++++++++++++++++++++++++++++++++",
"++++++++++++++++o+++++++++++++++++++++++++++++++++++++++++++o+++",
"+++++++++++++o++o++++++++++++++++++++++++++++++++++++++++++++o++",
"+++++++++++++++++++++++++++++++++++++++++++++++++++++o++++++++o+",
"+++++++++++++++++++++++++++++++++++++++++++++++++++++o++++++++++",
"++++++++++++++++++++++++++++++++++++++++++++++++++++++++++++++++",
"+++++++++++++++++++++++++++++++++++++o++++++++++++++++++++++++++",
"++++++++++++++++++++++++++++++++++++++++++++++++++++++++++++++++",
"++++++++++++++++++++++++++++++++++++++++++++++++++++++++++++++++",
"++++++++++++++++++++++++OO+++++++++OOO++++++++++++++++++++++++++",
"++++++++++++++++++++++++OOOO++++OOOOOOOO++++++++++++++++++++++++",
"++++++++++++++++++OO+++OOOOOOOOOOOOOOOOOO+++OO++++++++++++++++++",
"+++++++++++++++++OOOOOOOOOOOOOOOOOOOOOOOOOOOOOO+++++++++o+++++++",
"++++++++++++++++OOOOOOOXXOOXXXOOOOOOOXXXXOOOOOOO++++++++o+++++++",
"++++++++++++++OOOOOOOOXXXXXXXXXOOOOXXXXXXXOOOOOOOO++++++o+++++++",
"++++++++++++++OOOOOOXXXXXXXXXXXXXXXXXXXXXXXXOOOOOO++++++o+++++++",
"++++++++++++++OOOOOOXXXXXXXXXXXXXXXXXXXXXXXXOOOOOO++++++++++++++",
"++++++o++++++OOOOOOOXXXXXXXXXXXXXXXXXXXXXXXXOOOOOOO+++++++++++++",
"++++++o+++++OOOOOOOXXXXXXXXXXXXXXXXXXXXXXXXXXOOOOOOO++++++++++++",
"++++++oo++++OOOOXXXXXXXXXXXXX.XXXXXXXXXXXXXXXXXXOOOO++++++++++++",
"+++++++++++OOOOXXXXXXXX..XXX...XXX..XXX..XXXXXXXXOOOO+++++++++++",
"+++++++++++OOOXXXXXXXX....................XXXXXXXXOOO+++++++++++",
"+++++++++++OOOXXXXXXX......................XXXXXXXOOO+++++++++++",
"++++++++++OOOOXXXXXXX......................XXXXXXXOOOO++++++++++",
"++++++++++OOOOOXXXXXXX....................XXXXXXXOOOOO++++++++++",
"+++++++++++OOOOXXXXXXX.... ..    .. ......XXXXXXXOOOO+++++++++++",
"+++++++++++OOOXXXXXXXX....          ......XXXXXXXXOOO+++++++++++",
"++++++++++++OOXXXXXXX......           .....XXXXXXXOO++++++++++++",
"++++++++++++OOXXXXXX.......            .....XXXXXXOO++++++++++++",
"++++++++++++OOOXXXXXX.....            .....XXXXXXOOO++++++++++++",
"++++++++++++OOOOXXXXXX.....          .....XXXXXXOOOO++++++++++++",
"+++++++++++OOOOOXXXXXX...              ...XXXXXXOOOOO+++++++++++",
"+++++++++++OOOOOXXXXXX....            ....XXXXXXOOOOO+++++++++++",
"+++++++++++OOOOOXXXXX....            ......XXXXXOOOOO+++++++++++",
"++++++++++OOOOOXXXXXX....            ......XXXXXXOOOOO++++++++++",
"++++++++++OOOOOXXXXXXX...            .....XXXXXXXOOOOO++++++++++",
"++++++++++OOOOXXXXXXXX....  ..    .   ....XXXXXXXXOOOO++++++++++",
"+++++++++++OOOXXXXXXXX.... ......... .....XXXXXXXXOOO+++++++++++",
"+++++++++++OOOXXXXXXX......................XXXXXXXOOO+++++++++++",
"+++++++++++OOOXXXXXXX......................XXXXXXXOOO+++++++++++",
"+++++++++++OOOXXXXXXXX....................XXXXXXXXOOO+++++++++++",
"+++++++++++OOOOXXXXXXXX..XXX...XXX..XXX..XXXXXXXXOOOO+++++++++++",
"++++++++++++OOOOXXXXXXXXXXXXX.XXXXXXXXXXXXXXXXXXOOOO++++++++++++",
"++++++++++++OOOOOOOXXXXXXXXXXXXXXXXXXXXXXXXXXOOOOOOO++++++++++++",
"+++++++++++++OOOOOOOXXXXXXXXXXXXXXXXXXXXXXXXOOOOOOO+++++++++++++",
"++++++++++++++OOOOOOXXXXXXXXXXXXXXXXXXXXXXXXOOOOOO++++++++++++++",
"++++++++++++++OOOOOOXXXXXXXXXXXXXXXXXXXXXXXXOOOOOO++++++++++++++",
"++++++++++++++OOOOOOOOXXXXXXXXXOOOOXXXXXXXOOOOOOOO++++++++++++++",
"++++++++++++++++OOOOOOOXXOOXXXOOOOOOOXXXXOOOOOOO++++++++++++++++",
"+++++++++++++++++OOOOOOOOOOOOOOOOOOOOOOOOOOOOOO+++++++++++++++++",
"++++++++++++++++++OO+++OOOOOOOOOOOOOOOOOO+++OO++++++++++++++++++",
"++++++++++++++++++++++++OOOO++++OOOOOOOO++++++++++++++++++++++++",
"++++++++++++++++++++++++OO+++++++++OOO++++++++++++++++++++++++++",
"++++++++++++++++++++++++++++++++++++++++++++++++++++++++++++++++",
"++++++++++++++++++++++++++++++++++++++++++++++++++++++++++++++++",
"++++++++++++++++++++++++++++++++++++++++++++++++++++++++++++++++",
"++++++++++++++++++++++++++++++++++++++++++++++++++++++++++++++++",
"++++++++++++++++++++++++++++++++++++++++++++++++++++++++++++++++",
"++++++++++++++++++++++++++++++++++++++++++++++++++++++++++++++++",
"+oo+++++++++++++++++++++++++++++++++++++++++++++++++++++++++++++",
"+oo++++oooooo++++ooooo++++++++oooo+++++++oooo+++++oooo+++++++o++",
"+oo++++oooooo++++ooooo++++++++oooo+++++++oooo+++++oooo+++++++o++",
"+++oooo+++++++oo++++++oooo+++o++++++oooo++++++oo++++++oooooo++++"
};
