/* XPM */
static char *result[] = {
/* columns rows colors chars-per-pixel */
"64 64 144 2 ",
"   c #1A121E",
".  c #24141F",
"X  c #1D1521",
"o  c #261E26",
"O  c #2C1A22",
"+  c #281F28",
"@  c #341E24",
"#  c #2A2027",
"$  c #362025",
"%  c #392126",
"&  c #34262C",
"*  c #3B2428",
"=  c #3B2A2C",
"-  c #422729",
";  c #452A2A",
":  c #4C2E2B",
">  c #43302E",
",  c #4F302D",
"<  c #54332D",
"1  c #5B362D",
"2  c #55392F",
"3  c #5D392F",
"4  c #423230",
"5  c #4B3730",
"6  c #483A31",
"7  c #553D31",
"8  c #5A3D30",
"9  c #60372D",
"0  c #623A2F",
"q  c #6B3E2F",
"w  c #633C30",
"e  c #693E30",
"r  c #384C31",
"t  c #3C5E36",
"y  c #3B623A",
"u  c #4A532E",
"i  c #51552D",
"p  c #574230",
"a  c #5C4632",
"s  c #465336",
"d  c #6A402F",
"f  c #664131",
"g  c #6D4432",
"h  c #654B32",
"j  c #6B4B33",
"k  c #734431",
"l  c #794732",
"z  c #744A33",
"x  c #794B33",
"c  c #6A5135",
"v  c #705533",
"b  c #7B5533",
"n  c #765935",
"m  c #7A5C35",
"M  c #59662F",
"N  c #576630",
"B  c #596630",
"V  c #586830",
"C  c #516E38",
"Z  c #52713A",
"A  c #567C3B",
"S  c #7C6037",
"D  c #627E3A",
"F  c #327543",
"G  c #367845",
"H  c #3D7D43",
"J  c #407F43",
"K  c #825335",
"L  c #885633",
"P  c #855C35",
"I  c #8A5D35",
"U  c #925A35",
"Y  c #985E34",
"T  c #836436",
"R  c #8A6336",
"E  c #866A37",
"W  c #886A37",
"Q  c #866538",
"!  c #876A38",
"~  c #8C6A38",
"^  c #936236",
"/  c #9A6437",
"(  c #946937",
")  c #966539",
"_  c #986639",
"`  c #926C3A",
"'  c #9C6D3A",
"]  c #96713C",
"[  c #9C733C",
"{  c #A96735",
"}  c #AA6835",
"|  c #A06F3B",
" . c #B26C35",
".. c #A4733C",
"X. c #A4793F",
"o. c #AB793F",
"O. c #BC7036",
"+. c #9D7D43",
"@. c #A47B41",
"#. c #AB7E43",
"$. c #4D863E",
"%. c #4C883F",
"&. c #5C843A",
"*. c #528D3B",
"=. c #5A8D3A",
"-. c #5A943B",
";. c #5D983C",
":. c #64833B",
">. c #68873A",
",. c #618A39",
"<. c #62953C",
"1. c #6F963E",
"2. c #649A3D",
"3. c #6B9B3D",
"4. c #7D9A3C",
"5. c #6CA13D",
"6. c #72A43E",
"7. c #77A93F",
"8. c #7BAC3F",
"9. c #2E8744",
"0. c #358243",
"q. c #3E8044",
"w. c #438243",
"e. c #488441",
"r. c #608E40",
"t. c #609642",
"y. c #6FA342",
"u. c #73A542",
"i. c #76A940",
"p. c #7DAE40",
"a. c #809F3E",
"s. c #81AE3F",
"d. c #A18146",
"f. c #AE8143",
"g. c #B38344",
"h. c #BB8442",
"j. c #BD944F",
"k. c #85AF42",
"l. c #85B341",
"z. c #89B642",
"x. c #8DB942",
"c. c #92BC41",
"v. c #C29C53",
"b. c #97C041",
/* pixels */
"z.z.z.z.z.z.z.z.z.z.z.z.z.z.z.z.z.z.z.z.z.z.z.k.z.z.z.x.z.z.z.z.z.z.z.z.z.z.z.z.z.z.z.z.J H G z.z.z.z.z.z.z.z.z.z.z.z.z.z.z.z.z.",
"z.z.z.z.z.z.z.z.z.z.z.z.z.z.z.z.z.z.z.z.z.z.z.z.z.z.z.z.z.k.z.z.z.z.z.z.z.z.z.z.z.z.z.z.z.z.z.z.z.z.z.z.z.z.z.z.z.z.z.z.z.z.z.z.",
"z.z.z.z.z.z.z.x.x.z.z.z.z.z.z.z.z.z.z.z.z.z.z.z.z.z.z.z.z.z.z.z.z.z.z.z.z.z.z.z.z.z.z.z.z.z.z.z.z.x.z.z.z.z.z.z.z.z.z.z.z.z.z.z.",
"z.z.z.z.z.z.z.z.z.z.z.x.z.z.z.z.z.z.z.J z.z.z.z.z.z.z.z.z.z.z.z.z.z.z.z.z.z.z.z.z.z.z.z.z.z.z.z.z.z.z.z.z.u.z.z.z.z.z.z.z.z.z.z.",
"z.z.z.z.z.z.z.z.z.z.z.z.z.z.z.z.z.z.z.J z.z.z.z.z.z.z.z.z.z.z.z.z.z.z.z.z.z.z.z.z.z.z.z.z.z.z.z.z.z.z.z.z.J z.z.z.z.z.z.z.z.z.z.",
"z.z.z.z.z.z.z.x.z.z.z.z.z.z.z.z.z.z.z.z.z.z.z.k.z.z.z.z.z.z.z.z.z.z.z.z.z.z.z.z.z.z.z.z.z.z.z.z.z.z.z.z.H J z.z.z.z.z.z.z.z.z.z.",
"s.z.z.z.z.z.z.s.z.z.b.z.z.z.z.z.z.z.z.z.z.z.z.z.z.z.z.z.z.z.z.z.z.z.z.z.z.z.z.z.z.z.z.z.z.z.z.z.z.z.z.z.z.z.z.z.z.z.z.z.z.z.z.z.",
"x.x.x.z.z.z.z.z.z.z.s.z.z.z.z.z.z.z.z.z.z.z.z.z.z.z.z.z.z.z.z.z.z.z.z.z.z.z.z.z.z.z.z.z.z.z.z.z.z.z.z.z.z.k.z.z.z.z.z.z.z.z.z.x.",
"z.z.z.z.z.z.z.z.z.z.z.z.z.z.z.z.z.z.z.z.z.z.z.z.z.z.z.z.z.z.z.z.z.z.z.z.z.z.z.z.z.z.z.z.z.z.z.z.z.z.z.z.z.z.z.z.z.z.z.z.z.z.z.z.",
"z.z.z.z.z.z.z.z.z.z.z.z.z.z.z.z.z.z.z.z.z.z.z.z.z.z.z.z.z.z.z.z.z.z.z.z.z.z.z.z.z.z.z.z.z.z.z.z.z.z.z.z.z.z.z.z.z.z.z.z.z.z.z.z.",
"z.z.z.z.z.z.z.z.z.z.z.z.p.H z.z.z.z.z.z.z.z.z.z.z.z.z.z.z.z.z.z.z.z.z.z.z.z.z.z.z.z.z.z.z.z.z.z.z.z.z.z.z.z.z.z.z.z.z.z.z.z.z.z.",
"z.z.z.z.z.z.z.z.z.z.z.z.p.H b.z.z.z.z.z.z.z.z.z.z.z.z.z.z.z.z.z.k.z.z.z.z.z.z.z.z.z.z.z.z.z.z.z.z.z.z.z.z.z.z.z.z.z.z.z.z.z.z.z.",
"z.z.z.z.z.z.z.z.z.z.z.z.l.H H z.z.z.z.z.z.z.z.z.z.z.z.z.z.l.z.z.z.z.k.k.z.z.l.z.z.z.z.z.z.z.z.z.z.z.z.z.z.z.z.z.z.z.z.z.z.z.z.z.",
"z.z.z.z.z.z.z.z.z.z.z.z.z.z.z.z.z.z.z.z.z.z.z.z.z.z.z.z.z.z.z.b b Q b +.I x x x z.z.z.z.z.z.z.z.z.z.z.z.z.z.z.z.H z.z.z.z.z.z.z.",
"z.z.z.z.z.z.z.z.z.z.x.z.z.z.z.z.z.z.z.l.z.z.l.z.z.x.z.z.8 w I v.v.v.v.j.@.| _ l k w f z.z.z.z.z.z.z.z.z.z.H c.z.H z.z.z.z.z.z.z.",
"z.z.z.z.z.z.z.z.z.z.z.z.z.z.z.z.z.z.l.4.k.a.k.>.z.z.x.S w z ^ b K K K @.) | | k x 8 w 4.z.z.l.z.z.z.z.z.z.H c.z.w.z.z.z.z.z.z.z.",
"z.z.z.z.z.z.z.z.z.z.z.z.z.z.z.z.z.z.z.@ @ @ @ @ l.z.z.P I P ' P K K K K K o.../ U 8 2 < z.z.x.z.z.z.z.z.z.J c.z.z.z.z.z.z.z.z.z.",
"z.z.z.z.z.z.z.z.z.z.x.z.z.z.z.z.z.k.@ 0 l l < < * @ b @.x k z z 2 < 2 2 f x z d @.n b g : z.z.z.z.z.z.z.z.z.z.z.z.x.z.z.z.z.z.z.",
"z.z.z.z.z.z.z.z.z.z.z.z.z.z.z.z.@ @ < e w 8 ; < f 1 @ I z - ;                 q ) I P g = z.z.z.z.z.z.z.z.z.z.z.z.z.z.z.z.z.z.z.",
"z.z.z.z.z.z.z.z.z.z.z.z.z.z.z.z.@ @ l e , < ; 2 k e - z & X X                   k h j z p $ B z.z.z.z.z.z.z.z.z.z.z.z.z.z.z.z.z.",
"z.z.z.z.z.z.z.z.z.z.z.z.z.z.z.z.@ @ k e : < ; 1 k q : z = @                     x j j ' p @ B z.z.z.z.z.z.z.z.z.z.z.z.x.z.z.z.z.",
"z.z.z.z.z.z.z.z.z.z.z.z.z.z.z.@ Y L z 1 < , < 8 l l ; :                         % @.@.g.a @ N z.z.z.z.z.z.z.z.z.z.z.z.z.z.z.z.z.",
"z.z.z.z.z.z.z.z.z.z.z.z.z.z.z.@ #...x ; 0 0 < 0 k q ; ,                         X I R #.: @ B z.z.z.z.z.z.z.z.z.z.z.z.z.z.x.z.z.",
"z.z.z.z.z.z.z.z.z.z.z.z.z.z.z.@ h.@.k ; 0 0 < 0 l q ; ;                           U ' #.p @ M z.z.z.x.p.z.z.z.z.z.z.z.z.z.z.z.z.",
"z.z.z.z.z.z.z.z.z.z.z.z.z.z.z.@ h.@.k ; 0 w 1 0 k e ; :                           U ^ f.p @ V z.z.z.y.e.z.z.z.z.z.z.z.z.z.z.z.z.",
"z.z.z.z.z.z.z.z.z.z.z.z.z.z.z.@ O.{ e ; w w < 0 k 0 - 0                           @.f.g.p @ B z.z.;.*.z.z.z.z.z.z.z.z.z.z.z.z.z.",
"z.z.z.z.z.z.z.z.z.z.z.z.z.z.z.@ O.} 0 ; 0 0 0 1 q 1 - <                           z z g.a @ N z.z.z.z.z.z.z.z.z.z.z.z.z.z.x.z.z.",
"z.z.z.z.z.z.z.z.z.z.z.0.x.z.z.@ O.} w ; 0 w 1 0 l 1 - :                           K ) g.5 @ M z.z.z.z.z.z.z.z.z.z.z.z.z.z.z.z.z.",
"z.z.z.z.z.z.z.z.z.z.z.H z.z.z.@ O.} 0 ; 0 0 0 1 k 1 - , X X                       K _ g., $ M z.z.z.z.z.z.z.z.z.z.z.z.z.z.z.z.z.",
"z.z.z.z.z.z.z.z.z.z.z.z.J H z.@ O.} 0 : 0 0 w : q 1 - ,                           X.#.g.a @ M z.z.z.z.z.z.z.z.z.z.z.z.z.z.z.z.z.",
"z.z.z.z.z.z.z.z.z.z.z.z.z.z.z.@ O.{ 0 ; @ O 1 0 l 1 - ,                           ` ] T a $ V z.z.-.%.z.z.z.z.z.z.z.z.z.z.z.z.z.",
"z.z.z.z.z.z.z.z.G G z.z.z.z.z.@ O.{ 0 @ I R O 8 k 1 - -                           ~ ] @.a $ u -.-.-.*.z.z.z.z.z.z.z.z.z.x.z.z.z.",
"z.z.z.z.z.z.z.z.u.J z.z.z.z.z.$ O.{ w @ R R @ 1 k 1 - -                           ~ ( X.a @ u <.-.-.%.s.z.z.z.z.z.z.z.z.z.z.z.z.",
"z.z.z.z.z.z.z.z.z.z.*.z.z.z.z.@ O.} 0 * - - O < k 9 - <                           S T f.h . i <.$.s.z.b.-.-.z.z.z.z.z.z.z.z.z.z.",
"z.z.z.z.z.z.z.z.z.z.z.z.z.z.:.@ O.{ 9 - O O : 9 k 9 - -                           S T f.a $ r q.-.z.5.-.-.z.z.z.z.z.z.z.z.z.z.z.",
"z.z.z.z.z.z.z.z.z.z.x.z.z.z.z.$ O.{ w ; 9 w ; 9 k 0 - 2                           z d f.2 $ r q.;.-.-.-.z.z.z.z.z.z.z.z.z.z.z.z.",
"z.z.z.z.z.z.z.z.z.z.z.z.z.z.z.@  .{ 0 - 9 0 ; 1 k q - 1                           z d f.2 $ r H ;.-.5.8.z.z.z.z.z.z.z.z.z.z.z.z.",
"z.z.z.z.z.z.z.z.z.z.z.z.z.z.z.$ } { w ; 9 q ; 9 k k - ; X X                       ~ ' o.2 @ r q.-.-.p.z.z.z.z.z.z.z.z.z.z.z.z.z.",
"z.z.z.z.z.z.z.z.z.l.;.;.x.z.-.@ } { 0 ; 9 0 ; 1 k k @ : o # 4 4 4 4 > > + X       ` ` ..3 $ r H ;.-.;.;.;.z.z.z.z.z.z.z.z.z.z.z.",
"z.z.z.z.z.z.z.z.z.z.z.-.-.=.-.@ ) I 0 ; 0 0 ; 9 ; ; O 7 c h c c c c c Q n a f 5 $ m m E 6 @ r H ;.z.s.;.z.-.z.z.z.z.z.p.b.z.z.z.",
"z.z.z.z.z.x.z.z.z.z.z.i.6.5.-.@ _ R 9 ; 2 < - % O O > a j c c n m m m ! n h j h > m m S s u t F ;.z.z.p.p.y.y.z.z.z.z.z.z.z.z.z.",
"z.z.z.z.z.z.z.z.z.z.z.z.z.z.;.@ ( I 9 ; < < ; @ . O c c c c c W E E ! ! ~ W ~ v a E E 2.y &.1.z.z.z.z.z.z.z.l.z.z.z.z.z.z.z.z.z.",
"z.z.z.z.z.z.z.z.z.z.z.z.z.z.z.$ ( I 3 - % % @ c c c c c E W W W ! @.@.+.W ! W W W c j =.J <.2.<.;.z.z.z.z.z.z.z.z.z.z.z.z.z.z.z.",
"z.z.z.z.z.z.z.z.z.z.-.-.x.z.:.; P b 3 O 2 < 2 Q m m E E W W W E ! W W ! W ! E 6.Q W W 8.z.<.2.2.z.z.z.z.z.z.z.z.z.z.z.z.z.z.z.z.",
"z.z.z.z.z.z.z.z.3.5.-.x.x.s.,.:.. . - >.A A v W T T d.d.W W ~ W W W W +.+.! ! ! 2.0.9.z.z.8.7.l.z.z.l.z.z.z.z.z.z.z.z.z.z.z.z.z.",
"z.z.z.z.z.z.z.z.-.-.-.z.x.z.-.D @ @ ; D Z C W W W W d.d.W W W ! W E W +.+.W E E 2.H q.z.z.z.z.z.z.z.z.z.z.z.z.z.z.z.z.z.z.z.z.z.",
"z.z.z.z.z.z.z.z.z.z.z.z.z.z.z.z.&.&.q.$.s.8.W W ] W W W W W ! ! +.+.+.+.+.+.+.=.*.s.x.z.z.x.z.z.z.;.i.z.z.z.z.z.z.z.z.z.z.z.z.z.",
"z.z.z.z.z.z.z.z.z.z.z.z.z.z.z.-.x.l.z.z.2.2.<.W s.s.<.W W W +.+.W +.[ 3.+.z.z.z.l.-.*.z.z.z.z.z.z.z.z.z.z.z.z.z.z.z.z.z.z.z.z.z.",
"z.z.z.z.z.z.z.z.z.z.z.z.z.z.z.z.z.z.z.t.t.e.z.z.p.p.t.t.z.z.@.+.d.l.z.x.z.z.z.z.z.p.z.t.z.z.z.z.z.z.z.z.z.z.z.z.z.z.z.z.z.z.z.z.",
"z.z.z.z.z.z.z.z.z.z.z.z.z.z.z.x.z.z.z.t.t.t.z.z.z.z.t.t.z.z.+.+.d.z.z.z.z.z.z.z.b.b.p.t.z.z.z.z.z.l.z.z.z.z.z.z.z.z.z.z.z.z.z.z.",
"z.z.z.z.z.z.z.H u.z.z.l.z.z.z.z.z.z.z.z.l.z.z.z.-.-.-.z.z.z.z.z.p.z.z.z.z.z.z.z.p.z.z.z.z.z.z.z.z.z.z.z.z.z.z.z.z.z.z.z.z.z.z.z.",
"z.z.z.z.z.z.z.H r.z.z.z.z.z.z.z.z.z.z.z.z.z.z.z.z.z.z.z.z.z.z.z.z.z.z.z.z.z.z.z.b.z.z.z.z.z.z.z.z.z.z.z.z.z.z.z.z.z.z.z.s.z.z.z.",
"z.z.z.z.z.z.z.z.z.z.z.z.z.z.z.z.z.z.z.z.z.z.z.z.z.l.z.z.z.z.z.z.z.z.z.z.p.z.z.z.p.z.z.z.z.z.z.z.z.z.z.z.z.z.z.z.z.z.z.z.x.z.z.z.",
"z.z.z.x.z.z.z.z.z.z.z.z.z.z.z.z.z.z.z.z.z.z.z.z.z.z.z.z.z.z.z.z.z.z.z.z.b.p.z.z.z.z.z.z.z.z.z.z.z.z.x.z.z.z.z.z.z.z.z.z.z.z.z.z.",
"z.z.z.z.z.z.z.z.z.z.z.z.z.z.z.z.z.z.z.z.z.z.z.z.z.z.z.z.z.z.z.z.z.z.z.z.p.b.z.z.z.z.z.z.b.p.z.z.z.z.F H z.z.z.z.z.z.z.z.z.z.z.z.",
"z.z.z.z.z.z.z.z.z.z.z.z.z.z.z.z.z.z.z.z.z.z.z.z.z.z.z.z.z.l.z.z.z.z.z.z.b.p.z.z.z.z.z.z.z.z.z.z.z.0.H H z.z.z.z.z.z.z.z.z.z.z.z.",
"z.z.z.z.z.z.z.z.z.z.z.z.x.z.z.z.x.z.z.z.z.z.z.z.z.z.z.z.z.z.z.z.z.z.z.z.z.z.z.z.z.z.z.z.z.z.z.z.p.b.z.z.z.z.b.z.z.z.z.z.z.z.z.z.",
"z.z.z.z.z.l.z.z.z.z.z.z.z.z.z.z.z.z.z.z.z.z.z.z.z.z.z.z.z.z.z.z.z.z.z.z.z.z.z.z.z.z.z.z.z.z.z.z.z.z.z.z.z.z.p.z.x.s.z.z.z.z.z.z.",
"z.z.z.z.z.z.z.z.z.z.z.z.z.z.z.z.z.z.z.z.z.z.z.z.z.z.z.z.z.z.z.z.z.z.z.z.z.z.z.z.z.z.z.z.z.z.z.z.z.z.z.z.b.p.z.z.z.z.x.z.s.z.z.z.",
"z.z.z.z.z.z.z.z.z.z.z.z.z.z.z.z.z.z.z.z.z.z.x.q.z.z.z.z.z.z.z.z.z.z.z.z.z.z.z.z.z.z.z.z.z.z.z.z.z.z.z.z.z.z.z.z.z.z.z.z.b.z.z.z.",
"z.z.z.z.z.z.z.z.z.z.z.z.z.z.z.z.z.z.q.G z.z.z.G z.z.z.z.z.z.z.z.z.z.z.z.z.z.z.z.z.z.z.z.z.z.z.z.z.z.z.z.z.z.z.p.b.p.z.z.z.z.z.z.",
"z.z.z.z.z.z.z.z.z.z.z.z.z.z.z.z.z.z.z.z.t.t.z.b.z.z.z.z.z.z.z.z.z.z.z.z.z.z.z.z.z.z.z.z.z.z.z.z.z.z.z.z.z.z.z.b.p.b.p.z.z.z.z.z.",
"z.z.z.z.z.z.z.z.z.z.z.z.z.z.z.z.z.z.z.x.w.w.z.z.z.z.z.z.z.l.z.z.z.z.z.z.z.z.z.z.z.z.z.z.z.z.z.z.z.z.z.z.z.z.z.z.b.p.z.z.z.z.z.z.",
"z.z.z.z.z.z.z.z.z.z.z.z.z.z.z.z.z.z.z.z.z.x.z.z.z.z.z.z.z.z.z.z.z.z.z.z.z.z.z.z.z.z.z.z.z.z.z.z.z.z.z.z.p.b.z.z.z.z.b.s.z.z.z.z."
};
