/* XPM */
static char *result[] = {
/* columns rows colors chars-per-pixel */
"64 64 137 2 ",
"   c #170E1E",
".  c #180F1E",
"X  c #1A101F",
"o  c #1E1220",
"O  c #231522",
"+  c #291723",
"@  c #2C1A25",
"#  c #311C26",
"$  c #361E29",
"%  c #381F29",
"&  c #342028",
"*  c #3B222A",
"=  c #42262D",
"-  c #47292F",
";  c #4A2B2F",
":  c #4E2D31",
">  c #512E31",
",  c #543132",
"<  c #5A3433",
"1  c #5E3834",
"2  c #653935",
"3  c #6D3E34",
"4  c #5C4235",
"5  c #5A4A36",
"6  c #5D4E39",
"7  c #5F5137",
"8  c #5F5239",
"9  c #5B5C3D",
"0  c #6E4235",
"q  c #634C36",
"w  c #694E37",
"e  c #724435",
"r  c #754A35",
"t  c #784C35",
"y  c #78493A",
"u  c #655337",
"i  c #6A5536",
"p  c #6E5936",
"a  c #615239",
"s  c #6B543B",
"d  c #665A3C",
"f  c #745434",
"g  c #7B5434",
"h  c #725935",
"j  c #7B5C34",
"k  c #7C5739",
"l  c #725939",
"z  c #7E5E3B",
"x  c #4D6A3C",
"c  c #56653F",
"v  c #59633E",
"b  c #536D3E",
"n  c #58693F",
"m  c #51703E",
"M  c #5A703E",
"N  c #6D643A",
"B  c #626A3F",
"V  c #6C6C3E",
"C  c #746E3B",
"Z  c #6D763E",
"A  c #677C3E",
"S  c #6B7B3D",
"D  c #75703D",
"F  c #7A723C",
"G  c #346540",
"H  c #3D6F43",
"J  c #3F7042",
"K  c #427241",
"L  c #5E7A41",
"P  c #676D42",
"I  c #7D6740",
"U  c #6E7441",
"Y  c #627C40",
"T  c #687D41",
"R  c #737342",
"E  c #815E36",
"W  c #81593A",
"Q  c #846237",
"!  c #83633C",
"~  c #896639",
"^  c #8C6B3A",
"/  c #906F3D",
"(  c #8E713C",
")  c #93743D",
"_  c #96783E",
"`  c #997A3F",
"'  c #947444",
"]  c #977941",
"[  c #9B7C42",
"{  c #907249",
"}  c #9E7D4A",
"|  c #668337",
" . c #688637",
".. c #668439",
"X. c #698539",
"o. c #678A3C",
"O. c #6A893A",
"+. c #548245",
"@. c #5E9044",
"#. c #638644",
"$. c #688740",
"%. c #6A8C41",
"&. c #728F44",
"*. c #7C874A",
"=. c #629344",
"-. c #6C9C43",
";. c #719742",
":. c #7C9142",
">. c #739B43",
",. c #77A344",
"<. c #7BA545",
"1. c #7EAC45",
"2. c #7CA649",
"3. c #7CAB4A",
"4. c #868845",
"5. c #9E8044",
"6. c #819548",
"7. c #A58544",
"8. c #A88644",
"9. c #AC8B45",
"0. c #A1814C",
"q. c #AD8B4D",
"w. c #B08F45",
"e. c #B08F4C",
"r. c #B49246",
"t. c #BA9646",
"y. c #B2924C",
"u. c #B7994C",
"i. c #BE9A4A",
"p. c #8BA24F",
"a. c #87B745",
"s. c #88B745",
"d. c #87B845",
"f. c #88B845",
"g. c #85B54A",
"h. c #88B748",
"j. c #89BB49",
/* pixels */
"f.s.s.s.s.a.f.f.s.f.s.s.s.s.d.s.s.s.s.s.s.s.s.s.s.s.s.f.s.s.s.s.s.s.a.s.f.a.s.s.s.s.s.s.J J J a.a.s.s.s.s.s.f.f.s.s.s.s.s.f.a.s.",
"f.s.s.f.a.a.a.s.d.f.d.s.d.s.s.s.a.s.s.s.s.s.a.a.s.s.f.s.s.a.a.a.a.s.f.s.s.f.s.s.s.s.s.s.f.s.s.f.f.f.d.s.s.s.s.f.d.f.d.f.s.d.f.f.",
"s.s.s.d.a.f.s.f.d.d.s.s.d.d.d.s.s.s.s.a.s.s.a.s.s.s.f.s.s.s.a.s.s.s.s.f.s.s.s.s.s.s.a.s.s.s.s.a.s.s.f.f.d.s.s.s.s.f.d.s.s.s.s.a.",
"s.a.s.s.s.s.d.s.d.s.d.d.d.s.d.s.f.f.a.J a.a.s.s.s.f.s.s.s.s.s.a.s.a.s.a.s.h.s.s.f.a.s.a.a.s.f.f.s.f.s.s.f.K @.f.a.s.s.s.a.d.d.s.",
"s.d.s.s.a.f.s.s.d.s.s.f.s.f.f.d.f.s.d.J a.s.a.s.s.a.a.d.s.s.a.f.a.s.s.s.s.a.f.a.a.s.s.s.s.s.s.a.s.f.s.s.a.J @.s.a.d.s.a.s.s.f.s.",
"d.f.s.s.s.a.f.a.f.s.s.s.s.s.d.s.d.f.d.s.s.s.f.a.s.s.s.s.s.s.s.s.s.f.s.f.s.s.d.s.s.s.a.a.s.s.f.s.s.s.s.f.J J =.f.a.f.f.a.f.f.a.d.",
"a.f.s.s.s.a.f.f.s.s.f.s.d.d.s.s.s.s.a.f.a.a.a.s.a.s.a.f.s.a.a.s.f.s.d.a.a.a.s.a.j.s.d.f.a.s.s.a.s.s.f.f.s.f.f.s.a.s.a.s.s.a.s.f.",
"d.s.s.f.f.s.s.s.f.s.s.f.s.s.d.s.a.s.f.s.d.a.d.s.d.a.a.s.s.a.s.a.s.a.s.a.h.d.h.a.a.a.s.f.a.s.s.s.a.s.s.f.s.s.s.a.f.s.s.f.s.f.a.f.",
"s.s.s.s.s.s.s.s.f.s.s.d.d.f.s.s.a.s.a.a.s.a.s.s.s.s.a.a.f.d.s.s.d.f.f.a.a.a.s.a.s.a.s.s.s.s.f.a.s.s.a.s.f.s.s.s.s.s.s.s.s.d.s.s.",
"s.s.s.s.s.s.s.f.s.s.s.s.s.f.s.s.s.f.s.f.a.s.a.s.s.s.f.h.f.s.d.s.a.s.s.a.f.s.s.h.a.s.s.f.a.s.s.s.s.s.a.a.s.a.s.f.f.f.a.s.s.s.s.s.",
"d.s.s.s.s.s.s.f.s.s.s.d.J J s.s.s.f.s.s.d.s.s.a.s.a.s.a.a.a.s.a.a.a.s.s.s.h.s.a.d.a.s.s.a.f.s.d.a.f.s.s.s.f.s.a.s.a.f.a.a.s.s.a.",
"d.s.s.s.s.s.s.f.s.s.s.s.J m f.s.f.s.s.s.a.a.s.a.a.a.s.a.a.s.s.a.a.s.a.s.s.s.f.s.s.s.s.f.s.a.d.s.s.d.s.s.s.a.f.a.s.s.f.s.s.s.f.s.",
"s.s.s.s.s.d.s.f.s.s.s.s.H J J d.f.s.a.f.a.a.s.a.f.d.s.a.s.a.s.d.s.s.h.s.f.a.d.s.a.f.d.a.s.s.f.s.a.s.s.s.s.f.f.s.a.f.s.s.s.s.s.d.",
"s.s.s.d.s.d.s.d.s.d.d.d.d.d.d.d.s.s.s.f.s.s.s.s.s.a.s.a.s.a.a.a.a.d.a.s.s.s.d.s.s.a.s.s.a.a.s.a.f.s.s.d.d.s.s.s.J a.f.s.a.s.s.s.",
"d.s.s.d.s.s.s.s.s.s.d.s.d.s.s.d.s.s.a.f.s.a.a.a.s.a.s.a.s.s.d.a.a.s.s.f.a.s.s.s.s.s.s.s.a.a.f.s.s.s.s.s.s.J K f.J f.s.s.s.s.a.s.",
"s.d.s.s.d.s.d.s.s.s.d.s.d.d.s.d.a.d.a.s.s.s.a.a.s.s.s.a.s.a.a.a.s.a.s.a.s.a.s.s.s.d.s.a.a.f.s.s.s.a.d.s.a.J G s.G a.s.s.d.s.a.s.",
"s.s.d.d.s.s.s.d.d.f.f.s.s.s.s.a.d.a.s.s.s.s.s.s.d.d.d.s.s.s.d.d.a.a.j.s.h.s.h.a.s.s.f.d.s.s.f.s.s.s.s.h.s.J K s.f.f.s.s.a.s.s.a.",
"d.s.s.d.s.s.s.s.h.s.f.s.f.s.s.a.s.s.s.s.s.f.a.s.d.d.a.a.h.j.| |  .h.s.s.s.a.a.a.s.s.s.h.a.a.s.d.s.s.a.s.f.f.f.s.s.f.s.s.a.s.s.s.",
"s.d.s.d.s.s.d.s.a.s.s.a.s.a.f.d.s.s.s.s.s.s.a.X.o.h.d.d. .| d.d.h.d.f.s.a.a.h. . .h.h.h.s.f.a.a.f.d.a.s.f.s.s.f.f.s.s.s.a.s.s.s.",
"d.s.s.s.s.s.s.s.s.s.a.a.s.s.s.f.s.a.o.o.s.s.d.,.) U U d F { p.&.4.*.i d I %.o. .%.....d.o.o.>.f.a.s.s.s.f.s.s.s.s.f.s.f.s.f.s.s.",
"s.s.s.s.s.d.s.d.s.d.d.s.a.d.s.s.s.s.X. .a.j.a.h.` i i q ! ^ ^ f ~ i i i Q  . . .a. ...a. . .O.d.s.s.d.d.s.f.s.s.s.f.a.s.f.f.s.s.",
"d.s.s.d.s.s.d.s.s.s.a.s.a.s.a.h. .X. .s.h.j.) ) ) ` [ t.t.' ) ) w.y.7.` ` ^ ^ ^ ^ 3.a.h.f.d.d.d.s.s.d.h.f.f.a.d.a.s.f.s.a.a.a.s.",
"s.s.d.d.d.s.d.s.s.s.s.s. . .s.s.a.a.i i i i ` r.9.9.9.~ ~ r 3 / ) ) ) ` ` ` } 9.9.i u 6 q j.a.a.s.s.....s.a.d.s.a.s.s.s.s.a.f.s.",
"d.s.s.s.s.s.s.s.s.s.s.a.o.X.s.q q q ^ ' y.u.e.( ~ e e 3 0 0 3 e e e e e 0 0 e W r.u.i.y.^ p i i h.| 2.j.s.f.a.s.s.f.a.a.a.s.a.f.",
"s.s.s.s.a.s.a.a.s.s.s.s.X. .s.u i i ^ ` r.r.r.) ^ 3 e e e 3 3 e e r e r r e 3 E t.t.t.r.~ h p u a.X.g.s.a.a.f.s.s.s.f.d.s.f.s.s.",
"s.s.d.s.s.a.a.s.s.s.f.s.s.s.j ~ / ^ t.[ Q E e e e e e < < 3 e > > > > > e e 3 e ~ ( / ) r.` 5.i i  .A ....a.s.s.a.f.s.a.s.a.f.a.",
"s.s.s.s.s.a.d.s.s.s.s.s.4 u p [ w.e.E e e t t , > : > e e 2 : ; > > : > > > , e > : : ^ ) 8.7.) u p V S s.s.s.f.s.a.a.a.a.f.s.s.",
"d.d.d.d.s.s.s.s.s.s. . .i u [ [ E E e e e e e e ; : : > * @ # # ; > > ; # : > > e > , 3 e r e 5.) u a 7 s.s.s.s.s.s.s.f.a.f.s.s.",
"s.s.s.s.d.s.s.s.s.s.O.$.i i [ [ E ~ e t e e e y O = : > % # $ $ > > < < % > > : e > , 0 e r r [ ( u a u U j.f.f.f.s.d.f.f.s.s.f.",
"s.s.s.s.s.d.s.s.s.s.s.j Q j [ [ 3 e e > e e e     . # # #               . # # # 3 * * 2 e e 0 Q 9.^ l u a X.>.f.f.s.a.d.a.s.s.f.",
"d.d.s.s.s.s.d.| |  .a.c 7.9.` e e e $ : = @ .       .                             & $ @ & < , e ^ ] u u a X.<.s.| | j.f.s.s.f.s.",
"d.d.s.s.d.s.a.| O.j.j ( i.t.[ e < 2 # >                   .                           +   * ; < f ` ] ] u a X.....s.s.f.s.s.s.a.",
"s.d.s.s.a.s.a.o.#.>.j ) t.t.] e > < # %                                               +   $ * , g ' ) ` 6 q O...X.f.s.s.s.a.f.s.",
"f.s.s.d.s.a.a.a.X.X.j h [ ) ` e , < # @                             .                 +   # & ; f r.' ) a a X.X.s.f.s.s.a.s.s.s.",
"s.s.s.d.s.s.a.a.x b j j i.t.9.e * %   O                           . . .               .       , f 5.] ` a a T s.s.s.a.s.a.f.a.h.",
"f.d.s.s.a.s. . .X.X.a j t.t.9.r * $                                 . .                       # f ] ` ] a a P a.s.| j.s.a.f.s.f.",
"s.a.s.s.a.f.;.;.| X.P z } q.9.W t 1 . .                     o                           . . . % f ` ' ^ u 7 6 a...| h.s.s.s.s.f.",
"s.s.s.a.s.a.a.a.| X.O.j ^ ^ 7.] r t $ .                       o                     .   . % * < ) ` q u j 7 6 s.A A g.j.a.f.s.s.",
"s.a.f.s.s.s.s.s.a.d.b E ^ ^ [ r.` [ : + o       o                                 . . . $ , , W ) ^ p a a K 8 9 m a.s.a.s.s.d.s.",
"f.s.s.s.a.a. .f.b c v b j j ` 7.9.y.r r + o             X                           . # 0 ^ ~ ) ) u 7 7 a L A X.d.a.f.a.f.f.a.s.",
"f.s.a.s.s.s.1.a.Y L M #.:.D ^ 5.0.] k r ; * @ O o O O                   X X X X X     $ [ ' { ) a a a a 8 b |  .f.s.s.f.a.a.a.s.",
"s.s.s.f.s.a.a.s.s.f.O.d.a.<.j ) ) ) r.) e e r < $ * &     . X X       # = = = X @ 1 1 ^ 7.r.8.) a a 8 7 O. .1.s.a.a.a.s.s.s.s.s.",
"s.s.s.s.a.s.a.f.s.s.d.s.X.O.a h ) ) ) 9.7.7.` _ Q f f , - , , * : : - 2 3 g g 0 ^ [ ` ` ` ` } a a a X. .a.f.a.d.s. .a.s.s.s.s.a.",
"s.s.a.s.s.s.s.s.f.f.f.s.d.s.O.c h h ) j u p ( w.` [ ` [ ) g g g w.w.w.} ` [ [ [ 8.` ` j a 7 u a a X.X.| X.a.s.s.s.a.a.a.a.s.s.a.",
"s.s.s.a.s.s.s.f.s.h.s.s.f.f.X.c R :.5 a u u u ~ ` ` [ [ ) { } ! ' } } s w } } C z 5 6 6 a a a 7 Y ..$...,.s.s.s.s.s.a.s.s.s.s.s.",
"s.s.s.a.d.s.a.a.s.h.a.s.s.d.| c h.j.a a u u u ( 5.[ 5.[ [ q.r.7.` ) [ i i ` 5.j j 7 a a 7 a a a X.s.h.g.a.a.a.a.a.s.s.a.a.s.a.a.",
"a.s.s.a.s.s.a.a.| |  .a.s.s.d.a... . .b 8 7 7 j j j j u ( ) ) ) j g E j j a a a 7 b n a X.a a b K X.<.s.a.a.d.s.s.s.a.s.s.a.s.f.",
"s.s.s.s.s.a.s.a.a.a.a.s.a.s.h..... .d.X.n v 9 b j j j j j u u a a a q a u a a a  .s.Y 9 a.s.s.s.s..... .a.a.f.a.s.s.a.s.a.a.s.s.",
"f.d.s.d.d.d.d.s.s.d.a.s.s.s.a.f.<.-.s. .<.2.%.K C 6.6.N d Z v 9 7 u 9 v 9 A A B <.O.O. .1.a.s.a.h.f.j.a.s.a.s.d.s.s.d.a.s.s.s.d.",
"s.s.s.s.d.d.s.a.a.a.s.s.s.f.f.f.s.s.a. .a.a.a.L h.h.j.v P .. .X.7 n b b m O.X.s.j... .| | s.s.s.h.h.s.s.s.a.s.s.s.s.a.s.s.s.d.s.",
"s.f.s.a.d.d.d.H o.d.d.a.a.d.s.s.a.s.s.s.h.a.a.s.s.h. . .s.s.s.| | ..| s.s.s.a.a.j. .| s.s.s.s.s.s.s.s.s.s.a.s.s.s.d.s.s.a.a.d.a.",
"f.a.s.s.d.d.d.x -.d.a.a.a.s.a.a.f.s.s.s.a.a.s.s. .X. .h.a.s.s.s.s.s.a.a.a.g. .a.s.s.s.s.s.s.a.a.s.s.s.s.a.s.a.s.s.s.d.s.d.a.a.a.",
"f.s.d.d.s.d.s.s.s.f.a.s.f.a.s.a.s.s.a.s.s.s.s.a.s.s.s.s.s.s.s.a.s.a.s.a.f.a.s.s.s.s.s.a.d.s.s.d.s.s.a.a.a.a.a.s.s.s.s.s.s.s.s.s.",
"s.s.s.d.s.s.d.s.s.a.s.s.a.d.s.a.a.a.s.s.s.s.s.s.s.s.a.a.s.s.a.a.s.s.s.s.s.a.s.s.s.s.a.a.s.s.s.d.s.s.a.a.a.a.s.a.s.a.s.d.d.s.a.a.",
"d.s.s.s.s.s.s.s.f.s.f.f.f.a.a.s.s.s.s.a.f.f.a.s.s.s.s.s.a.s.a.s.a.a.a.a.a.a.s.a.s.a.s.s.s.s.s.s.s.a.G H a.s.s.s.s.s.d.s.a.s.s.a.",
"s.d.s.d.s.s.d.d.f.s.a.d.d.a.s.a.d.d.s.a.s.s.a.s.s.s.s.s.a.s.s.s.a.a.s.a.a.s.s.s.a.a.a.a.s.s.s.d.s.x H H a.a.s.s.a.a.s.s.a.a.s.s.",
"s.s.s.d.s.s.d.s.s.s.s.f.s.s.a.s.f.f.s.s.s.a.s.s.s.a.a.s.s.a.s.a.a.f.a.a.d.s.s.f.s.d.s.s.s.d.s.d.s.s.s.s.d.s.s.s.s.s.s.s.d.s.s.s.",
"d.s.s.d.d.s.d.s.f.a.s.s.s.s.d.a.f.d.a.d.s.f.a.a.s.a.s.s.s.s.a.s.a.f.a.s.s.a.s.s.d.d.s.d.d.s.s.d.d.s.s.s.d.s.s.s.a.a.a.a.s.d.s.s.",
"s.s.s.d.s.s.d.s.s.f.a.s.a.a.a.s.s.s.d.d.s.s.f.s.s.s.s.s.a.s.s.a.s.s.a.s.s.s.s.a.s.s.s.d.d.s.s.s.s.s.s.s.f.s.s.d.s.a.s.d.s.s.s.s.",
"s.d.s.s.d.s.s.f.s.a.s.a.s.f.s.s.s.s.f.d.f.s.f.J f.s.f.s.s.f.a.d.a.d.a.f.s.s.f.a.s.s.s.s.d.d.s.d.s.s.d.s.s.s.s.s.s.a.d.s.a.a.d.s.",
"s.s.s.s.f.a.s.s.s.f.a.s.f.f.a.s.f.d.J J j.a.f.K s.d.s.s.d.d.a.d.a.s.a.f.a.s.f.s.d.s.d.s.d.s.s.s.s.s.s.s.s.s.d.s.s.s.s.d.s.s.s.s.",
"s.d.s.s.s.s.s.s.a.a.s.s.s.s.d.f.f.f.-.-.+.=.f.K a.f.d.s.s.d.f.s.a.s.s.s.s.s.s.f.s.s.s.s.s.d.s.s.s.d.s.s.s.s.d.s.s.d.a.s.s.s.s.d.",
"s.d.d.s.s.a.a.s.s.f.s.f.s.f.d.s.d.d.d.d.J x s.s.s.s.s.s.s.s.s.s.s.s.f.f.s.s.s.s.d.s.s.d.s.s.s.s.s.d.s.s.d.s.s.s.d.d.a.a.s.d.s.s.",
"s.s.s.d.d.s.s.a.s.s.s.s.s.a.f.d.d.d.d.d.d.d.a.s.s.s.a.a.s.s.s.s.s.s.s.s.f.f.s.a.s.s.s.d.s.s.s.d.s.s.s.s.s.d.d.s.s.s.a.d.d.s.s.s."
};
