/* XPM */
static char *result[] = {
/* columns rows colors chars-per-pixel */
"64 64 194 2 ",
"   c #232C57",
".  c #23355E",
"X  c #253A5E",
"o  c #162268",
"O  c #182F7A",
"+  c #233661",
"@  c #233865",
"#  c #233A6E",
"$  c #233E73",
"%  c #223B76",
"&  c #2A455E",
"*  c #29495C",
"=  c #2C525A",
"-  c #2B5A5B",
";  c #30575A",
":  c #3E7C4C",
">  c #2B645C",
",  c #2C6D59",
"<  c #3B645F",
"1  c #356B58",
"2  c #316D5D",
"3  c #347256",
"4  c #397556",
"5  c #3D7B53",
"6  c #367159",
"7  c #397B5A",
"8  c #194C67",
"9  c #1E5463",
"0  c #25426D",
"q  c #295462",
"w  c #265C63",
"e  c #244373",
"r  c #24457C",
"t  c #254B7A",
"y  c #275177",
"u  c #26537D",
"i  c #295978",
"p  c #2A6361",
"a  c #2B676F",
"s  c #427E4E",
"d  c #58774D",
"f  c #427D51",
"g  c #5D983F",
"h  c #649C3F",
"j  c #689E3F",
"k  c #72A53E",
"l  c #3CA370",
"z  c #4B8646",
"x  c #46824D",
"c  c #49854B",
"v  c #4D894A",
"b  c #548D46",
"n  c #518D49",
"m  c #569044",
"M  c #5B9542",
"N  c #5E9843",
"B  c #55904A",
"V  c #558A5C",
"C  c #619A41",
"Z  c #659C44",
"A  c #6D9F52",
"S  c #6DA341",
"D  c #75AB44",
"F  c #6CA559",
"G  c #72BB5D",
"H  c #519D7C",
"J  c #6ABE68",
"K  c #61BF7C",
"L  c #84B53D",
"P  c #8AB638",
"I  c #85B83E",
"U  c #8ABA3E",
"Y  c #91BC3D",
"T  c #85B640",
"R  c #8FDE5D",
"E  c #1C589C",
"W  c #224583",
"Q  c #244E86",
"!  c #244F88",
"~  c #255385",
"^  c #265C83",
"/  c #24518A",
"(  c #265E88",
")  c #235692",
"_  c #235B95",
"`  c #235D9A",
"'  c #276586",
"]  c #286285",
"[  c #25648B",
"{  c #24688E",
"}  c #286889",
"|  c #236694",
" . c #236894",
".. c #23639C",
"X. c #23689C",
"o. c #22729D",
"O. c #1F6CA6",
"+. c #1F6DA8",
"@. c #1E73AA",
"#. c #1979AA",
"$. c #1E7CAD",
"%. c #1F7EB0",
"&. c #2265A2",
"*. c #216BA5",
"=. c #2466A9",
"-. c #226DA8",
";. c #2173A5",
":. c #2072A9",
">. c #217BAD",
",. c #1683AF",
"<. c #1E81AE",
"1. c #1787B2",
"2. c #1D85B2",
"3. c #1788B3",
"4. c #1A8AB4",
"5. c #1D8EB8",
"6. c #1D91B7",
"7. c #1D94BA",
"8. c #1D9BBE",
"9. c #2084B2",
"0. c #218BB6",
"q. c #218FB9",
"w. c #2094BA",
"e. c #229BBE",
"r. c #2898BA",
"t. c #1EA0BE",
"y. c #53BEAE",
"u. c #50C69D",
"i. c #55C1AA",
"p. c #4BC6B2",
"a. c #5DCCBE",
"s. c #1E9EC0",
"d. c #16A4C2",
"f. c #1DA3C2",
"g. c #1EAAC5",
"h. c #1EADC9",
"j. c #1FB0C7",
"k. c #1FB4CA",
"l. c #1FBACE",
"z. c #22A3C3",
"x. c #21A9C6",
"c. c #29AAC5",
"v. c #25AFC9",
"b. c #26B1C7",
"n. c #21B4CB",
"m. c #2BB4CB",
"M. c #22BBCE",
"N. c #29BACD",
"B. c #34B8CB",
"V. c #3DBCCE",
"C. c #23BED1",
"Z. c #29BED1",
"A. c #30BCD2",
"S. c #3ABED0",
"D. c #23C0CF",
"F. c #36C5CD",
"G. c #3BC4CC",
"H. c #25C1D3",
"J. c #2BC3D4",
"K. c #29C6D8",
"L. c #2DCAD9",
"P. c #33C3D4",
"I. c #3BC5D3",
"U. c #32CDD7",
"Y. c #3CCAD5",
"T. c #31C6DC",
"R. c #33CCDC",
"E. c #39CCDB",
"W. c #3CD1DD",
"Q. c #25C7E7",
"!. c #31C9E0",
"~. c #49C5C8",
"^. c #48C5CC",
"/. c #4BCACC",
"(. c #5DCCCA",
"). c #44C5D3",
"_. c #4BC7D5",
"`. c #45CAD6",
"'. c #49C9D5",
"]. c #44CDDA",
"[. c #4BCEDA",
"{. c #59CFD7",
"}. c #45D1DD",
"|. c #54D3DE",
" X c #5CD6DA",
".X c #66D7DC",
"XX c #6DDCDC",
"oX c #70DDDA",
"OX c #55D9E2",
"+X c #5DDCEC",
"@X c #68DAE3",
"#X c #82E0DB",
"$X c #98E5DB",
"%X c #A9EAD9",
/* pixels */
"R R R R R R R R R R R R R R R R R R R R R R R R R R R R R R R R R R R R R R R R R R R R l l l R R R R R R R R R R R R R R R R R ",
"R R R R R R R R R R R R R R R R R R R R R R R R R R R R R R R R R R R R R R R R R R R R R R R R R R R R R R R R R R R R R R R R ",
"R R R R R R R R R R R R R R R R R R R R R R R R R R R R R R R R R R R R R R R R R R R R R R R R R R R R R R R R R R R R R R R R ",
"R R R R R R R R R R R R R R R R R R R l R R R R R R R R R R R R R R R R R R R R R R R R R R R R R R R R R l R R R R R R R l R R ",
"R R l R R R R R R R R R R R R R R R R l R R R R R R R R R R R R R R R R R R R R R R R R R R R R R R R R R l R R R R R R R l R R ",
"R R l R R R R R R R R R R R R R R R R R R R R R R R R R R R R R R R R R R R R R R R R R R R R R R R R R l l R R R R R R l l R R ",
"R R l l R R R R R R R R R R R R R R R R R R R R R R R R R R R R R R R R R Q.T.R R R R R R R R R R R R R R R R R R R R R R R R R ",
"R R R R R R R R R R R R R R R R R R R R R R R R R R R R R R R R R R R R R T.F.R R R R R R R R R R R R R R R R R R R R R R R R R ",
"R R R R R R R R R R R R R R R R R R R R R R R R R R R R R R R R R R R R F.}.].G.R R R R R R R R R R R R R R R R R R R R R R R R ",
"R R R R R R R R R R R R R R R R R R R R R R R R R R R R /.R R R R R R R R OX XR R R R R R R R R R R R R R R R R R R R R R R R R ",
"R R R R R R R R R R R R l l R R R R R R R R {./.R R R R R R R R R R R R R R R R R R R R R R R R R R R R R R R R R R R R R R R R ",
"R R R R R R R R R R R R l l R R R R R R R R `.G.R R R R R R R R R R R R R R R R R R R R R R R R R R R R R R R R R R R R R R R R ",
"R R R R R R R R R R R R l l l R R R R R !.Y.$X%X(.a.R R R R R R R R R R R R R R R R R R R R R R R R R R R R R R R R R R R R R R ",
"R R R R R R R R R R R R R R R R R R R R {.(.#XoX^.p.R R R R R R R R R R R R R R R R R R R R R R R R R R R R R R l R R R R R R R ",
"R R R R R R R R R R R R R R R R R R R R R R ~.(.R R R R R R R R R R R R R R R R R R R G.R R R R R R R R R l R R l R R R R R R R ",
"R R R R R R R R R R R R R R R R R R R R R R y.i.R R R R R R R R R +X@XR R R R R R R R R R R R R R R R R R l R R l R R R R R R R ",
"R R R R R R R R R R R R R R R R R R R R R R R R R R R R R R R R R OXoXR R R R R R R R R R R R R R R R R R l R R R R R R R R R R ",
"R R R R R R R R R R R R R R R R R R R R R R R R R R G.R R R R R R R R R R R R R R R R R R R R R R R R R R R R R R R R R R R R R ",
"R R R l R R R R R R R R R R R R G.G.R R R R R R R R R R R R R R R R R R R R R R R R R R `.R R R R R R R R R R R R R R R R R R R ",
"R R l l R R R R R R R R R R R R R R R R R R R R R R R R R R I G R R R R R R R R R R R R  XR R R R R R R R R R R R R R R l R R R ",
"R R l l R R R R R R R R R R R R R R R R R R R R R R R R R R P G.P R R R R R R R R R R /.%X/.R R R R R R R R R R R R R R l R R R ",
"R R R R R R R R R R R R R R R R R R R R N C h R R R R M j j h m M M M M R R R R R R R R }.R R R R R R R R R R R R R R l l R R R ",
"R R R R R R R R R R R R R R R R R R l L g Y U { [ [ { | [ @.-.%.2.-.| [ <.<.>.E _ R R R R R R R R R K G.R R R R R R R l l R R R ",
"R R R R R R R R R R R c D R R R R R 5 A V F H 0.N.m.B.V.^.A.m.z.e.c.B.v.z.<.<.X...F F F c R R R R R J u.R R R R R R R l l R R R ",
"R R R R R R R R R R R c D R R R R U a _ ` ` 2.5.C.Z.B.)._.n.m.x.z.B.V.m.x.2.9.:.>.-.O.` x I R R R R R R R R R R R R R R R R R R ",
"R R R R R R R R R R R R c b R R e t &.%.h.j.R.n.f.x.5.>...` _ ` ` _ ` :.$.5.7.x.].n.M.5.5.Q Q r s n C R R R R R R R R R R R R R ",
"R R R R R R R R R R R R R R r r =.&.5.H.f.f.%.-.....` ` ` ` ` ` _ ` _ ` ` ` ` _ %.7.3.|.M.$.&.&.e k N b m R R R R R R R R R R R ",
"R R R R R R R b b R R R O e ` &.L.U.n.7.&.X.&...` ` ` ` e.e.s.s.s.s.s.s.6.6.2.) ../ ~ &.g.U.+.$.` 0 < m U R R R R R R R R R R R ",
"R R R R R R R b z R R R O $ ` -.L.U.n.7.X.....` ` ` ` ` w.w.w.w.w.7.7.8.5.5.2._ ..! Q &.f.L.#.>.` e < M R R R R R R R R R R R R ",
"R R R R R R R R s x R $ =.&.5.P.b.v.<.X.| | ` @.l.l.C.1.H.Z.J.H.C.[.[.).C.h.h.9.>.....Q ` 0.z.E.@.( e $ R R m N N R R R R R R R ",
"R R R R R R R R R R y ` w.q.J.x.2.5.Q ! | | 5.h.f.f.3.3.1.1.3.3.3.3.3.3.3.[.|.C.6.1.5. .~ Q o.8.E.:./ ~ # c b b R R R R R R R R ",
"R R R R R R R R R R @ 2.K.H.E.w./ ~ | | 5.7.E.8.1.1.3.3.4.8.s.8.8.8.8.3.3.1.1.f.T.5.7. .! Q / &.C.n.1.<.@ 2 R R R R R R R R R R ",
"R R R R R R R L R R @ 9.K.Z.E.w.Q ~ |  .7.8.E.8.3.1.4.1.3.s.s.8.e.8.5.1.3.3.3.s.L.5.5.| / / ) O.M.M.$.<.@ 2 Z R R R R R R R R R ",
"R l R R R R R s 4 6 . 9.L.J.Z.*.Q / | | k.k.E.3.1.4.1.8.}.}.}.C.n.8.s.s.s.1.3.5.L.7.t.| [ Q Q Q 6.M.2.5.y . d R R R R R R R R R ",
"R l R R U C C h 9 w u q.W.Y.Z.*.Q / | | C.C.L.3.4.1.3.g.K.d.d.f.s.s.8.7.s.3.3.3.D.8.t.| | / Q ~ 7.U.5.q.u . d R R b R R R R R R ",
"R R R R R R R L o . u 0.R.I.B.-.! Q X.| f.f.L.g.1.4.1.7.g.C.H.l.C.f.s.s.1.3.3.3.M.8.f.X./ Q Q Q w.L.q.q.u @ ; : v R R R R R R R ",
"R R R R R R R L o . u 9.U.I.N.-.Q Q | | 8.h.U.d.,.1.4.6.8.7.8.7.7.6.s.s.3.1.1.#.H.7.7.X.Q ~ ~ ) 7.J.w.q.u . = f : R R R R R R R ",
"R R R R R R R b o + t &.D.n.[.w.~ Q Q | | [ M.}.j.k.3.3.3.3.3.3.3.3.3.3.3.3.4.l.f.:.:.X.Q ~ ) *.g.C.9.5.r . = 4 R R R R R R R R ",
"R R R R R R R R o + + ] h.s.M.|.w.w.! Q | | | s.Z.'..XZ.5.3.4.4.3.3.3.3.h.[.OXs.>.-.:.Q Q | +.4.M.4.>.@.i . ; : R R R R R R R R ",
"R R R R R R R R 8 w @ i &.O.n..Xn.M.<.! Q Q / | | ;.7.v.f.f.s.I.T.f.s.s.@.+.+.@.*.Q ! ~ -.9.c.E.M.$.&.O.e . d R n R R R R R R R ",
"R R R R R R R R w > + e &.O.%.S.Y.I.r.>.) / / / ! ! W W ` E &.E E W W % W t Q W Q Q Q / v.n.w.e.7. .Q t $ . d R R R R l R R R R ",
"R R R R R R N C M M + + ....:.n.].'.'.5.O.X./ / / ! ! / &.=.&.&.O./ ! ! Q / ! Q Q / W <.C.Z.5.7.3.{ % % . , n R R R l l R R R R ",
"R R R R R R R R R R m + [ ^ ' [ 2.2.n.U.C.H.8.<./ / / / ! / / / ! Q ! ! / / ~ +.$.8.8.U.C.5.%.@.' } . . > , B R R R R R R R R R ",
"R R R R R R R R R R R . . . e ' [ [ -.$.s.f.M.].I.Z.C.n.w.w.w.w.w.w.w.8.t.l.l.H.R.}.OXf.%.>...( ^ . . . k R R R R R R R R R R R ",
"R R l R R R R R B z c v 7 7 .   # $ u ..@.@.2.4.6.7.R.K.XXXXXXXX).'.'.].Z.C.H.8.8.#.$.$.' [ y # . . = 4 5 R R R R R R R R R R R ",
"R R l R R R R R x n c c 3 4 . . % $ ~ ..O.O.2.0.6.7.R.J.XXXXoXXX)._.'._.J.C.H.t.f.#.@.>.' ' t # . . * 4 f R R R R R R R R R R R ",
"R l l R R R R b z z R R R R 2 . + . . # ^ ^ -.-.:.@.:.:.5.7.z.z.$.$.$.$.%.>.>.+.:.&._ ^ $ + . . p M S R R R R R R R R R R R R R ",
"R R l R R R R R R R R R 3 s 2 R m N . . + @ + r u u &.&.&.&.&.&.O...&.&.&.^ ] ] i + . . + q 1 b R R R R R R R R R R R R R R R R ",
"R R R R R R R R R R R R R L R R R R b 4 - w X . . . . & & & & & & X & & . . . . . p p f 4 R R R R R R R R R R R R R R R R R R R ",
"R R R R R R R l R R R R R R R R R L n f > p @ X X X X & & & & & & & & & X X . X X > > x 4 R R R R R R R R R R R R R R R R R R R ",
"R R R R R R R l l R R R R R R R b b g R R T C R M b s 4 & & & & & & & s s f s R R R R R m N S R R R R R R R R R R R R R R R R R ",
"R R R R R R R l l R R R R R R R R R R R R T R R M M R R R R R R m m b b R R R b R R R R R R R R R R R R R R R R R R R R R R R R ",
"R R R R R R R R R R R R R R R R R R R R R R R N C m R R R R R R R R R R R R R R R R R R R R R R R R R R R R R R R R R R R R R R ",
"R R R R R R R R R R R R R R R R R R R R R R R h M h R R R R R R R R R R R R R R R R R R R R R R R R R R R R R R R R R R R R R R ",
"R R R R R R R R R R R R R R R R R R R R R R R R R R R R R R R R R R R R R R R R R R R R R R R R R R l l R R R R R R R R l R R R ",
"R R l l R R R R R R R R R R R R R R R R R R R R R R R R R R R R R R R R R R R R R R R R R R R R R l l l R R R R R R R R R l R R ",
"R R R l R R R R R R R R R R R R R R R R R R R R R R R R R R R R R R R R R R R R R R R R R R R R R R R R R R R R R R R R R R l R ",
"R R R R R R R R R R R R R R R R R R R R R R R R R R R R R R R R R R R R R R R R R R R R R R R R R R R R R R R R R R R R R R R R ",
"R R R R R R R R R R R R R R R R R R R R R R R R R R R R R R R R R R R R R R R R R R R R R R R R R R R R R R R R R R R R R R R R ",
"R R R R R R R R R R R R R R R R R R R R R R R R R R R R R R R R R R R R R R R R R R R R R R R R R R R R R R R R R R R R R R R R ",
"R R l l R R R R R R R R R R R R R R R R R R R R R R R R R R R R R R R R R R R R R R R R R R R R R R R R R R R R R R R R R R R R ",
"R R l l R R R R l l l l l l R R R R R l l l l l R R R R R R R R l l l l R R R R R R R R l l l l R R R R R l l l R R R R R l R R ",
"R R l l R R R R l l l l l l R R R R R l l l l l R R R R R R R R l l l l R R R R R R R R l l l l R R R R R l l l R R R R R l R R ",
"R R R R l l l l R R R R R R R R l l R R R R R R l l l l R R R l R R R R R R R l l l l R R R R R R l l R R R R R l l l l R R R R "
};
