/* XPM */
static char *result[] = {
/* columns rows colors chars-per-pixel */
"64 64 83 1 ",
"  c #9F7200",
". c #A07100",
"X c #A07200",
"o c #A17200",
"O c #A07300",
"+ c #A27400",
"@ c #A27500",
"# c #A67700",
"$ c #A67800",
"% c #A87A00",
"& c #A97B00",
"* c #3CA370",
"= c #B28300",
"- c #B38400",
"; c #B48500",
": c #B68700",
"> c #B08A00",
", c #B88900",
"< c #B88A00",
"1 c #B98A00",
"2 c #BA8B00",
"3 c #BB8C00",
"4 c #BC8D00",
"5 c #BD8E00",
"6 c #BF9000",
"7 c #BC9200",
"8 c #BD9D00",
"9 c #C19200",
"0 c #C29300",
"q c #C39400",
"w c #C59600",
"e c #C69700",
"r c #C89900",
"t c #C99900",
"y c #C99A00",
"u c #CA9B00",
"i c #CC9C00",
"p c #CE9E00",
"a c #D0A100",
"s c #D4A400",
"d c #D5A500",
"f c #D7A700",
"g c #D8A900",
"h c #D9A900",
"j c #DBAB00",
"k c #DCAC00",
"l c #DDAD00",
"z c #DEAE00",
"x c #DFAF00",
"c c #D4B300",
"v c #DCBB00",
"b c #E2B200",
"n c #E3B300",
"m c #E4B400",
"M c #E5B500",
"N c #EAB900",
"B c #EABA00",
"V c #ECBC00",
"C c #D9C700",
"Z c #DBCA00",
"A c #ECC000",
"S c #EBC900",
"D c #F3C200",
"F c #F4C300",
"G c #F4C400",
"H c #F6C600",
"J c #F7C600",
"K c #F7C700",
"L c #F8C700",
"P c #F0CE00",
"I c #FFCE00",
"U c #FFCF00",
"Y c #FFDB00",
"T c #FFDD00",
"R c #FEDE00",
"E c #FFE000",
"W c #FFF400",
"Q c #FFF900",
"! c yellow",
"~ c #FFFF06",
"^ c #8FDE5D",
"/ c #FFFFCF",
"( c white",
/* pixels */
"^^^^^^^^^^^^^^^^^^^^^^^^^^^^^^^^^^^^^^^^^^^^^^^^^^^^^^^^^^^^^^^^",
"^^^^^^^^^^^^^^^^*^^^^^^^^^^^^^^^^^^^^^^^^^^^^^^^^^^^^^^^^^^^^^^^",
"^^^^^^^^^^^^^^^^*^^^^^^^^^^^^^^^^^^^^^^^^^^^^^^^^^^^^^^^^^^^*^^^",
"^^^^^^^^^^^^^*^^*^^^^^^^^^^^^^^^^^^^^^^^^^^^^^^^^^^^^^^^^^^^^*^^",
"^^^^^^^^^^^^^^^^^^^^^^^^^^^^^^^^^^^^^^^^^^^^^^^^^^^^^*^^^^^^^^*^",
"^^^^^^^^^^^^^^^^^^^^^^^^^^^^^^^^^^^^^^^^^^^^^^^^^^^^^*^^^^^^^^^^",
"^^^^^^^^^^^^^^^^^^^^^^^^^^^^^^^^^^^^^^^^^^^^^^^^^^^^^^^^^^^^^^^^",
"^^^^^^^^^^^^^^^^^^^^^^^^^^^^^^^^^^^^^*^^^^^^^^^^^^^^^^^^^^^^^^^^",
"^^^^^^^^^^^^^^^^^^^^^^^^^^^^^^^^^^^^^*^^^^^^^^^^^^^^^^^^^^^^^^^^",
"^^^^^^^^^^^^^^^^^^^^^^^^^^^^^^^^^^**^*^^^^^^^^^^^^^^^^^^^^^^^^^^",
"^^^^^^^^^^^^^^^^^^^^^^^^^^^^^^^^^^^^^^^^^^^^^^^^^^^^^^^^^^^^^^^^",
"^^^^^^^^^^^^^^^^^^^^^^^^^^^^^^^^^^^^^^^^^^^^^^^^^^^^^^^^^^^^^^^^",
"^^^^^^^^^^^^^^^^^^^^^^^^^^^^^^^^^^^^^^^^^^^^^^^^^^^^^^^^^^^^^^^^",
"^^^^^^^^^^^^^^^^^^^^^^^^^^^^^^^^^^^^^^^^^^^^^^^^^^^^^^^**^^^^^^^",
"^^^^^^^^^^^^^^^^^^^^^^^^^^^^^^^^^^^^^^^^^^^^^^^^^^^^^*^**^^^^^^^",
"^^^^^^^^^^^^^^^^^^^^^^^^^^^^^^^^^^^^^^^^^^^^^^^^^^^^^*^**^^^^^^^",
"^^^^^^^^^^^^^^^^^^^^^^^*^^^^cTTTTII6^^^^^^^^^^^^^^^***^**^^^^^^^",
"^^^^^^^^^^^^^^^^^^^^*^^**vTTTTTTTTIIIIr^^^^^^^^^^^^^^^^^^^^^^^^^",
"^^^^^^*^^^^^^^^^^^^^*^^>TTQ/(!WTTTY!IIII.^^^^^^^^^^^^^^^^^^^^^^^",
"^^^^^^*^^^^^^^^^^^^^*^STT((TT888888IIIIIVV^^^^^^^^^^^^^^^^^^^^^^",
"^^^^^^***^^^^^^^^^^^^ST!TT888TTTTTTXX+IIVVV^^^^^^^^^^^^^^^^^^^^^",
"^^^^^^^^^^^^^^^^^^^^ST!TT8TT!(!!!TTIIIXbkVVV^^^^^^^^^^^^^^^^^^^^",
"^^^^^^^^^^^^^^^^^^^bS!T88T~(!!TTXCXIIIIXXdVVd^^^^*^^^^^^^^^^^^^^",
"^^^^^^^^^^^^^^^^^^@bRT88T(!!TTTXI#XIIIIIXXdMVo^^^*^^^^^^^^^^^^^^",
"^^^^^^^^^^^^^^^^^^bbIP8T!!!TTT7UI#XIIIIIVXsdVd^^^*^^^^^^^^^^^^^^",
"^^^^^^^^^^^^^^^^^tbbIXT!!TTTTT(II#XIIIIIVBXddd0^^**^^^^^^^^^^^^^",
"^^^^^^^^^^^^^^^^^dkFXI!!TTTTT!III#XIIIIVVVdXddu^^^^^^^^^^^^^^^^^",
"^^^^^^^^^^^^^^^^^d:KXI!IIITT!fIII#XIIIGVVVxX:du^^^^^^^^^^^^^^^^^",
"^^^^^^^^^^^^^^^^9di3X!!IIII!hh!II#XIIIVVVVVX:uu:^^^^^^^^^^^^^^^^",
"^^^^^^^^^^^^^^^^dddXI!IIIIZq2I!II#XILVVVVVVdX:uu^^^^^^^^^^^^^^^^",
"^^^^^^^^^^^**^^^dpaXV!IIIIIIII(II#XVVVVVVVVdX=uu^^^^^^^^^^^^^^^^",
"^^^^^^^^^^^**^**d,,XnAVIIIIIII!II#XVVVVVVVVuX=uu^^^^^^^^^^^^^^^^",
"^^^^^^^^^^^**^**d,:XdVVVVVDHVV!IJ#XVVVVVVVluX=uu^^^^^^^^^^^^^^^^",
"^^^^^^^^^^***^**ds:XdVVVVVVVVV!IN#XVVVVVVlluX=uu^^^^^^^^^^^^^^^^",
"^^^^^^^^^^^^^^^^ud:XddVVVVVVVV!Iz#XVVVVlllluX=uu^^^^^^^^^^^^^^^^",
"^^^^^^^^^^^^^^^^1u=:XdjVVVVVVV!Ih#XVVllllluX==u;^^^^^^^^^^^^^^^^",
"^^^^^^^^^^^^^^^^^u==XddVVVVVVV!Ih#XlllllljuX==u^^^^^^^^^^^^^^^^^",
"^^^^^^^^^^^^^^^^^u9=XuudmVVVVV!Ih#XlllllguyX=wu^^^^^^^^^^^^^^^^^",
"^^^^^^^^^^^^^^^^^4u==Xuuuullll!Ih#XlllluuuX==u<^**^^^^^^^^^^^^^^",
"^^^^^^^^^^^^^^^^^^u===Xuuuuull!Ih#XlluuuuX==-u^^**^^^^^^^^^^^^^^",
"^^^^^^^^^^^^^^^^^^Ou==XXuuuuuu!Ih#XuuuuuXX==u ^^**^**^^^^^^^^^^^",
"^^^^^^^^^^^^^^^^^^^uu==XXuuuuuEhh#XuuuuXX==uu^^^^^^^^^^^^^^^^^^^",
"^^^^^^^^^^^^^^^^^^^^u5===XeuuuXXXXXuueX====u^^^^^^^^^^^^^^^^^^^^",
"^^^^^^^^^^^^^^^^^^^^^u6===XXXuuuuuuXXX====u^^^^^^^^^^^^^^^^^^^^^",
"^^^^^^^^^^^^^^^^^^^^^^uu=====XXXXXX=====yu^^^^^^^^^^^^^^^^^^^^^^",
"^^^^^^^^^^^^^^^^^^^^^^^Xue=============uX^^^^^^^^^^^^^^^^^^^^^^^",
"^^^^^^^^^^^^^^^^^^^^^^^^^%uu,=======uu$^^^^^^^^^^^^^^^^^^^^^^^^^",
"^^^^^^^^^^^^^^^^^^^^^^^^^^^^&uuuuuu&^^^^*^^^^^*^^^^^^^^^^^^^^^^^",
"^^^^^^^^^^^^^^^^^^^^^^^^^^^^^^*^^^^^^^^^*^^*^^*^^^^^^^^^^^^^^^^^",
"^^^^^^^^^^^^^^^^^^^^^^^^^^^^^^*^^^^^^^^^*^^*^^*^^^^^^^^^^^^^^^^^",
"^^^^^^^^^^^^^^^^^^^^^^^^^^^^^^*^^*^^^^^^^^^*^^*^^^^^^^^^^^^^^^^^",
"^^^^^^^^^^*^^^^^^^^^^^^^^^^^***^^*^^^^^^^^^^^^^^^^^^^^^^^^^^^^^^",
"^^^^^^^^^^*^^^^^^^^^^^^^^^^^***^^*^^^^^^^^^^^^^^^^^^^^^^^^^^^^^^",
"^^^^^^^^^^***^^^^^^^^^^^^^^^^^^^^^^^^^^^^^^^^^^^^^^^^^^^^^^^^^^^",
"^^^^^^^^^^^^^^^^^^^^^^^^^^^^^^^^^^^^^^^^^^^^^^^^^^^^^^^^^^^^^^^^",
"^^^^^^^^^^^^^^^^^^^^^^^^^^^^^^^^^^^^^^^^^^^^^^^^^^^^^^^^^^^^^^^^",
"^^^^^^^^^^^^^^^^^^^^^^^^^^^^^^^^^^^^^^^^^^^^^^^^^^^^^^^^^^^^^^^^",
"^^^^^^^^^^^^^^^^^^^^^^^^^^^^^^^^^^^^^^^^^^^^^^^^^^^^^^^^^^^^^^^^",
"^^^^^^^^^^^^^^^^^^^^^^^^^^^^^^^^^^^^^^^^^^^^^^^^^^^^^^^^^^^^^^^^",
"^^^^^^^^^^^^^^^^^^^^^^^^^^^^^^^^^^^^^^^^^^^^^^^^^^^^^^^^^^^^^^^^",
"^**^^^^^^^^^^^^^^^^^^^^^^^^^^^^^^^^^^^^^^^^^^^^^^^^^^^^^^^^^^^^^",
"^**^^^^******^^^^*****^^^^^^^^****^^^^^^^****^^^^^****^^^^^^^*^^",
"^**^^^^******^^^^*****^^^^^^^^****^^^^^^^****^^^^^****^^^^^^^*^^",
"^^^****^^^^^^^**^^^^^^****^^^*^^^^^^****^^^^^^**^^^^^^******^^^^"
};
