/* XPM */
static char *result[] = {
/* columns rows colors chars-per-pixel */
"64 64 7 1 ",
"  c black",
". c #BA6156",
"X c #3CA370",
"o c #F2A65E",
"O c #8FDE5D",
"+ c #FFE478",
"@ c #FFFFEB",
/* pixels */
"OOOOOOOOOOOOOOOOOOOOOOOOOOOOOOOOOOOOOOOOOOOOOOOOOOOOOOOOOOOOOOOO",
"OOOOOOOOOOOOOOOOXOOOOOOOOOOOOOOOOOOOOOOOOOOOOOOOOOOOOOOOOOOOOOOO",
"OOOOOOOOOOOOOOOOXOOOOOOOOOOOOOOOOOOOOOOOOOOOOOOOOOOOOOOOOOOOXOOO",
"OOOOOOOOOOOOOXOOXOOOOOOOOOOOOOOOOOOOOOOOOOOOOOOOOOOOOOOOOOOOOXOO",
"OOOOOOOOOOOOOOOOOOOOOOOOOOOOOOOOOOOOOOOOOOOOOOOOOOOOOXOOOOOOOOXO",
"OOOOOOOOOOOOOOOOOOOOOOOOOOOOOOOOOOOOOOOOOOOOOOOOOOOOOXOOOOOOOOOO",
"OOOOOOOOOOOOOOOOOOOOOOOOOOOOOOOOOOOOOOOOOOOOOOOOOOOOOOOOOOOOOOOO",
"OOOOOOOOOOOOOOOOOOOOOOOOOOOOOOOOOOOOOXOOOOOOOOOOOOOOOOOOOOOOOOOO",
"OOOOOOOOOOOOOOOOOOOO                        OOOOOOOOOOOOOOOOOOOO",
"OOOOOOOOOOOOOOOOOOOO                        OOOOOOOOOOOOOOOOOOOO",
"OOOOOOOOOOOOOOOOOOOO                        OOOOOOOOOOOOOOOOOOOO",
"OOOOOOOOOOOOOOOOOOOO                        OOOOOOOOOOOOOOOOOOOO",
"OOOOOOOOOOOOOOOO    ++++++++++++++++++++++++    OOOOOOOOOOOOOOOO",
"OOOOOOOOOOOOOOOO    ++++++++++++++++++++++++    OOOOOOOXXOOOOOOO",
"OOOOOOOOOOOOOOOO    ++++++++++++++++++++++++    OOOOOXOXXOOOOOOO",
"OOOOOOOOOOOOOOOO    ++++++++++++++++++++++++    OOOOOXOXXOOOOOOO",
"OOOOOOOOOOOO    @@@@@@@@++++++++++++++++++++++++    XXOXXOOOOOOO",
"OOOOOOOOOOOO    @@@@@@@@++++++++++++++++++++++++    OOOOOOOOOOOO",
"OOOOOOXOOOOO    @@@@@@@@++++++++++++++++++++++++    OOOOOOOOOOOO",
"OOOOOOXOOOOO    @@@@@@@@++++++++++++++++++++++++    OOOOOOOOOOOO",
"OOOOOOXX    ++++@@@@@@@@................++++++++++++    OOOOOOOO",
"OOOOOOOO    ++++@@@@@@@@................++++++++++++    OOOOOOOO",
"OOOOOOOO    ++++@@@@@@@@................++++++++++++    OOOOOOOO",
"OOOOOOOO    ++++@@@@@@@@................++++++++++++    OOOOOOOO",
"OOOOOOOO    ++++++++....oooooooooooooooo....++++++++    OOOOOOOO",
"OOOOOOOO    ++++++++....oooooooooooooooo....++++++++    OOOOOOOO",
"OOOOOOOO    ++++++++....oooooooooooooooo....++++++++    OOOOOOOO",
"OOOOOOOO    ++++++++....oooooooooooooooo....++++++++    OOOOOOOO",
"OOOOOOOO    ++++++++oooooooooooooooooooo....++++++++    OOOOOOOO",
"OOOOOOOO    ++++++++oooooooooooooooooooo....++++++++    OOOOOOOO",
"OOOOOOOO    ++++++++oooooooooooooooooooo....++++++++    OOOOOOOO",
"OOOOOOOO    ++++++++oooooooooooooooooooo....++++++++    OOOOOOOO",
"OOOOOOOO    ++++++++oooooooooooooooooooo....++++++++    OOOOOOOO",
"OOOOOOOO    ++++++++oooooooooooooooooooo....++++++++    OOOOOOOO",
"OOOOOOOO    ++++++++oooooooooooooooooooo....++++++++    OOOOOOOO",
"OOOOOOOO    ++++++++oooooooooooooooooooo....++++++++    OOOOOOOO",
"OOOOOOOO    ++++++++oooooooooooooooooooo....@@@@@@@@    OOOOOOOO",
"OOOOOOOO    ++++++++oooooooooooooooooooo....@@@@@@@@    OOOOOOOO",
"OOOOOOOO    ++++++++oooooooooooooooooooo....@@@@@@@@    OOOOOOOO",
"OOOOOOOO    ++++++++oooooooooooooooooooo....@@@@@@@@    OOOOOOOO",
"OOOOOOOO    ++++++++++++oooooooooooooooo++++@@@@@@@@    OOOOOOOO",
"OOOOOOOO    ++++++++++++oooooooooooooooo++++@@@@@@@@    OOOOOOOO",
"OOOOOOOO    ++++++++++++oooooooooooooooo++++@@@@@@@@    OOOOOOOO",
"OOOOOOOO    ++++++++++++oooooooooooooooo++++@@@@@@@@    OOOOOOOO",
"OOOOOOOOOOOO    ++++++++++++++++++++++++++++++++    OOOOOOOOOOOO",
"OOOOOOOOOOOO    ++++++++++++++++++++++++++++++++    OOOOOOOOOOOO",
"OOOOOOOOOOOO    ++++++++++++++++++++++++++++++++    OOOOOOOOOOOO",
"OOOOOOOOOOOO    ++++++++++++++++++++++++++++++++    OOOOOOOOOOOO",
"OOOOOOOOOOOOOOOO    ++++++++++++++++++++++++    OOOOOOOOOOOOOOOO",
"OOOOOOOOOOOOOOOO    ++++++++++++++++++++++++    OOOOOOOOOOOOOOOO",
"OOOOOOOOOOOOOOOO    ++++++++++++++++++++++++    OOOOOOOOOOOOOOOO",
"OOOOOOOOOOXOOOOO    ++++++++++++++++++++++++    OOOOOOOOOOOOOOOO",
"OOOOOOOOOOXOOOOOOOOO                        OOOOOOOOOOOOOOOOOOOO",
"OOOOOOOOOOXXXOOOOOOO                        OOOOOOOOOOOOOOOOOOOO",
"OOOOOOOOOOOOOOOOOOOO                        OOOOOOOOOOOOOOOOOOOO",
"OOOOOOOOOOOOOOOOOOOO                        OOOOOOOOOOOOOOOOOOOO",
"OOOOOOOOOOOOOOOOOOOOOOOOOOOOOOOOOOOOOOOOOOOOOOOOOOOOOOOOOOOOOOOO",
"OOOOOOOOOOOOOOOOOOOOOOOOOOOOOOOOOOOOOOOOOOOOOOOOOOOOOOOOOOOOOOOO",
"OOOOOOOOOOOOOOOOOOOOOOOOOOOOOOOOOOOOOOOOOOOOOOOOOOOOOOOOOOOOOOOO",
"OOOOOOOOOOOOOOOOOOOOOOOOOOOOOOOOOOOOOOOOOOOOOOOOOOOOOOOOOOOOOOOO",
"OXXOOOOOOOOOOOOOOOOOOOOOOOOOOOOOOOOOOOOOOOOOOOOOOOOOOOOOOOOOOOOO",
"OXXOOOOXXXXXXOOOOXXXXXOOOOOOOOXXXXOOOOOOOXXXXOOOOOXXXXOOOOOOOXOO",
"OXXOOOOXXXXXXOOOOXXXXXOOOOOOOOXXXXOOOOOOOXXXXOOOOOXXXXOOOOOOOXOO",
"OOOXXXXOOOOOOOXXOOOOOOXXXXOOOXOOOOOOXXXXOOOOOOXXOOOOOOXXXXXXOOOO"
};
