/* XPM */
static char *result[] = {
/* columns rows colors chars-per-pixel */
"64 64 36 1 ",
"  c black",
". c #0F0D18",
"X c #3E231E",
"o c #161323",
"O c #1A172A",
"+ c #1E1A2E",
"@ c #231F37",
"# c #2E2929",
"$ c #363330",
"% c #3E3A36",
"& c #462924",
"* c #51302A",
"= c #5D352E",
"- c #663931",
"; c #46413C",
": c #744732",
"> c #322C51",
", c #514B45",
"< c #8F432E",
"1 c #8F442C",
"2 c #91452D",
"3 c #93462E",
"4 c #94452E",
"5 c #9E4C33",
"6 c #8F563B",
"7 c #AB5236",
"8 c #93683E",
"9 c #A27058",
"0 c #3CA370",
"q c #B6804A",
"w c #B6814C",
"e c #C18950",
"r c #D1975C",
"t c #D9A066",
"y c #8FDE5D",
"u c #B2B2B2",
/* pixels */
"yyyyyyyyyyyyyyyyyyyyyyyyyyyyyyyyyyyyyyyyyyyyyyyyyyyyyyyyyyyyyyyy",
"yyyyyyyyyyyyyyyy0yyyyyyyyyyyyyyyyyyyyyyyyyyyyyyyyyyyyyyyyyyyyyyy",
"yyyyyyyyyyyyyyyy0yyyyyyyyyyyyyyyyyyyyyyyyyyyyyyyyyyyyyyyyyyy0yyy",
"yyyyyyyyyyyyy0yy0yyyyyyyyyyyyyyyyyyyyyyyyyyyyyyyyyyyyyyyyyyyy0yy",
"yyyyyyyyyyyyyyyyyyyyyyyyyyyyyyyyyyyyyyyyyyyyyyyyyyyyy0yyyyyyyy0y",
"yyyyyyyyyyyyyyyyyyyyyyyyyyyyyyyyyyyyyyyyyyyyyyyyyyyyy0yyyyyyyyyy",
"yyyyyyyyyyyyyyyyyyyyyyyyyyyyyyyyyyyyyyyyyyyyyyyyyyyyyyyyyyyyyyyy",
"yyyyyyyyyyyyyyyyyyyyyyyyyyyyyyyyyyyyy0yyyyyyyyyyyyyyyyyyyyyyyyyy",
"yyyyyyyyyyyyyyyyyyyyyyyyyyyyyyyyyyyyy0yyyyyyyyyyyyyyyyyyyyyyyyyy",
"yyyyyyyyyyyyyyyyyyyyyyyyyyyyyyyyyy00y0yyyyyyyyyyyyyyyyyyyyyyyyyy",
"yyyyyyyyyyyyyyyyyyyyyyyyyyyyyyyyyyyyyyyyyyyyyyyyyyyyyyyyyyyyyyyy",
"yyyyyyyyyyyyyyyyyyyyyyyyyyyyyyyyyyyyyyyyyyyyyyyyyyyyyyyyyyyyyyyy",
"yyyyyyyyyyyyyyyyyyyyyyyyyyyyyyyyyyyyyyyyyyyyyyyyyyyyyyyyyyyyyyyy",
"yyyyyyyyyyyyyyyyyyyyyyyyyyyyyyyyyyyyyyyyyyyyyyyyyyyyyyy00yyyyyyy",
"yyyyyyyyyyyyyyyyyyyyyyyyyyyyyyyyyyyyyyyyyyyyyyyyyyyyy0y00yyyyyyy",
"yyyyyyyyyyyyyyyyyyyyyyyyyyyyyyyyyyyyyyyyyyyyyyyyyyyyy0y00yyyyyyy",
"yyyyyyyyyyyyyyyyyyyyyyy0yyyyyyyyy----:y::yyyyyyyyyy000y00yyyyyyy",
"yyyyyyyyyyyyyyyyyyyy0yy000yyyyy--:::66:66:yyyyyyyyyyyyyyyyyyyyyy",
"yyyyyy0yyyyyyyyyyyyy0yy000yyy--66666666666:yyyyyyyyyyyyyyyyyyyyy",
"yyyyyy0yyyyyyyyyyyyy0yy000y--:6:6666666:666:yyyyyyyyyyyyyyyyyyyy",
"yyyyyy000yyyyyyyyyyyyyyyyy-::666::666666966:yyyyyyyyyyyyyyyyyyyy",
"yyyyyyyyyyyyyyyyyyyyyyyyy-:66666666996666966:yyyyyyyyyyyyyyyyyyy",
"yyyyyyyyyyyyyyyyyyyyyyyyyy-6:66666666696-666:yyyy0yyyyyyyyyyyyyy",
"yyyyyyyyyyyyyyyyyyyyyyyyyy-66:::69666669:666:yyyy0yyyyyyyyyyyyyy",
"yyyyyyyyyyyyyyyyyyyyyyyyy-:66::666-96666:-669:yyy0yyyyyyyyyyyyyy",
"yyyyyyyyyyyyyyyyyyyyyyyy-:66:-:666--96666:-69:yyy00yyyyyyyyyyyyy",
"yyyyyyyyyyyyyyyyyyyyyyyyy-6:--::66-e---666-666-yyyyyyyyyyyyyyyyy",
"yyyyyyyyyyyyyyyyyyyyyyyyyy=:---::6-eeee----:--yyyyyyyyyyyyyyyyyy",
"yyyyyyyyyyyyyyyyyyyyyyyyy=:----ee66eXXeeeXX:6yyyyyyyyyyyyyyyyyyy",
"yyyyyyyyyyyyyyyyyyyyyyyyyy=----re66eu eeeu :6yyyyyyyyyyyyyyyyyyy",
"yyyyyyyyyyy00yyyyyyyyyyyy====--re-6eu#eeeu#e66yyyyyyyyyyyyyyyyyy",
"yyyyyyyyyyy00y00yyyyyyyyyy====--e-6rrrrtttre-yyyyyyyyyyyyyyyyyyy",
"yyyyyyyyyyy00y00yyyyyyyyyyyy===----rtttttttryyyyyyyyyyyyyyyyyyyy",
"yyyyyyyyyy000y00yyyyyyyyyyyooo====rttttttrryyyyyyyyyyyyyyyyyyyyy",
"yyyyyyyyyyyyyyyyyyyyyyyyyOoooooo=>ottttttwyyyyyyyyyyyyyyyyyyyyyy",
"yyyyyyyyyyyyyyyyyyyyyyyeooooo.o.@>>O8888yyyyyyyyyyyyyyyyyyyyyyyy",
"yyyyyyyyyyyyyyyyyyyyyyerOooo.ooo@@ooqqOoyyyyyyyyyyyyyyyyyyyyyyyy",
"yyyyyyyyyyyyyyyyyyyyertreooo...ooo@o%o@Oyyyyyyyyyyyyyyyyyyyyyyyy",
"yyyyyyyyyyyyyyyyyyyyerttrOo.....oo1o$o+@Oyyyyyyy00yyyyyyyyyyyyyy",
"yyyyyyyyyyyyyyyyyyyerttrr..@....o@o$$o+OOyyyyyyy00yyyyyyyyyyyyyy",
"yyyyyyyyyyyyyyyyyyyerttr.ooooo..oo,$$oOOryyyyyyy00y00yyyyyyyyyyy",
"yyyyyyyyyyyyyyyyyyyerrryooooo...1o$$oOOryyyyyyyyyyyyyyyyyyyyyyyy",
"yyyyyyyyyyyyyyyyyy.eer.oOOooo..oo$,o@Oerrryyyyyyyyyyyyyyyyyyyyyy",
"yyyyyyyyyyyyyyyy....e.OOOOOOoooo$;;o@Oettrryyyyyyyyyyyyyyyyyyyyy",
"yyyyyyyyyyyyyyyy......OOO@@@@1o$$$$oOOertreyyyyyyyyyyyyyyyyyyyyy",
"yyyyyyyyyyyyyyyyo...o.Oo@@@@@@o*&&&oooerreyyyyyyyyyyyyyyyyyyyyyy",
"yyyyyyyyyyyyyyyyyoooooooo>@1>o***&&ooooeeyyyyyyyyyyyyyyyyyyyyyyy",
"yyyyyyyyyyyyyyyyyyyyyooooo>oo1115555Oooy0yyyyy0yyyyyyyyyyyyyyyyy",
"yyyyyyyyyyyyyyy&&&&$$y44<oo>o55153555ooo0yy0yy0yyyyyyyyyyyyyyyyy",
"yyyyyyyyyyyyyyy&&&&%%e1115oo57753577557o0yy0yy0yyyyyyyyyyyyyyyyy",
"yyyyyyyyyyyyyyy&&&&,e1115577773357775557yyy0yy0yyyyyyyyyyyyyyyyy",
"yyyyyyyyyy0yyyy&&&=&e11115577307777777777yyyyyyyyyyyyyyyyyyyyyyy",
"yyyyyyyyyy0yyyy$$&=%%y111552200y177777777yyyyyyyyyyyyyyyyyyyyyyy",
"yyyyyyyyyy000yy,%$yyyyyy111yyyyyy15557757yyyyyyyyyyyyyyyyyyyyyyy",
"yyyyyyyyyyyyyyy%,$yyyyyyyyyyyyyyyy1555751yyyyyyyyyyyyyyyyyyyyyyy",
"yyyyyyyyyyyyyyy%,yyyyyyyyyyyyyyyyyy11171yyyyyyyyyyyyyyyyyyyyyyyy",
"yyyyyyyyyyyyyyyyyyyyyyyyyyyyyyyyyyyyeeeyyyyyyyyyyyyyyyyyyyyyyyyy",
"yyyyyyyyyyyyyyyyyyyyyyyyyyyyyyyyyyy$%,,,%yyyyyyyyyyyyyyyyyyyyyyy",
"yyyyyyyyyyyyyyyyyyyyyyyyyyyyyyyyyyy$%,&,yyyyyyyyyyyyyyyyyyyyyyyy",
"yyyyyyyyyyyyyyyyyyyyyyyyyyyyyyyyyyy&&===yyyyyyyyyyyyyyyyyyyyyyyy",
"y00yyyyyyyyyyyyyyyyyyyyyyyyyyyyyyyy&&&&$$yyyyyyyyyyyyyyyyyyyyyyy",
"y00yyyy000000yyyy00000yyyyyyyy0000y&&&$%,,000yyyyy0000yyyyyyy0yy",
"y00yyyy000000yyyy00000yyyyyyyy0000y&&&$,%%000yyyyy0000yyyyyyy0yy",
"yyy0000yyyyyyy00yyyyyy0000yyy0yyyyyy0000yyyyyy00yyyyyy000000yyyy"
};
