/* XPM */
static char *result[] = {
/* columns rows colors chars-per-pixel */
"64 64 32 1 ",
"  c black",
". c #0F0D18",
"X c #3E231E",
"o c #161323",
"O c #1A172A",
"+ c #1E1A2E",
"@ c #231F37",
"# c #2E2929",
"$ c #363330",
"% c #3E3A36",
"& c #462924",
"* c #51302A",
"= c #5D352E",
"- c #663931",
"; c #46413C",
": c #744732",
"> c #322C51",
", c #514B45",
"< c #8F442C",
"1 c #9E4C33",
"2 c #8F563B",
"3 c #AB5236",
"4 c #93683E",
"5 c #A27058",
"6 c #3CA370",
"7 c #B6804A",
"8 c #B6814C",
"9 c #C18950",
"0 c #D1975C",
"q c #D9A066",
"w c #8FDE5D",
"e c #B2B2B2",
/* pixels */
"wwwwwwwwwwwwwwwwwwwwwwwwwwwwwwwwwwwwwwwwwwwwwwwwwwwwwwwwwwwwwwww",
"wwwwwwwwwwwwwwww6wwwwwwwwwwwwwwwwwwwwwwwwwwwwwwwwwwwwwwwwwwwwwww",
"wwwwwwwwwwwwwwww6wwwwwwwwwwwwwwwwwwwwwwwwwwwwwwwwwwwwwwwwwww6www",
"wwwwwwwwwwwww6ww6wwwwwwwwwwwwwwwwwwwwwwwwwwwwwwwwwwwwwwwwwwww6ww",
"wwwwwwwwwwwwwwwwwwwwwwwwwwwwwwwwwwwwwwwwwwwwwwwwwwwww6wwwwwwww6w",
"wwwwwwwwwwwwwwwwwwwwwwwwwwwwwwwwwwwwwwwwwwwwwwwwwwwww6wwwwwwwwww",
"wwwwwwwwwwwwwwwwwwwwwwwwwwwwwwwwwwwwwwwwwwwwwwwwwwwwwwwwwwwwwwww",
"wwwwwwwwwwwwwwwwwwwwwwwwwwwwwwwwwwwww6wwwwwwwwwwwwwwwwwwwwwwwwww",
"wwwwwwwwwwwwwwwwwwwwwwwwwwwwwwwwwwwww6wwwwwwwwwwwwwwwwwwwwwwwwww",
"wwwwwwwwwwwwwwwwwwwwwwwwwwwwwwwwww66w6wwwwwwwwwwwwwwwwwwwwwwwwww",
"wwwwwwwwwwwwwwwwwwwwwwwwwwwwwwwwwwwwwwwwwwwwwwwwwwwwwwwwwwwwwwww",
"wwwwwwwwwwwwwwwwwwwwwwwwwwwwwwwwwwwwwwwwwwwwwwwwwwwwwwwwwwwwwwww",
"wwwwwwwwwwwwwwwwwwwwwwwwwwwwwwwwwwwwwwwwwwwwwwwwwwwwwwwwwwwwwwww",
"wwwwwwwwwwwwwwwwwwwwwwwwwwwwwwwwwwwwwwwwwwwwwwwwwwwwwww66wwwwwww",
"wwwwwwwwwwwwwwwwwwwwwwwwwwwwwwwwwwwwwwwwwwwwwwwwwwwww6w66wwwwwww",
"wwwwwwwwwwwwwwwwwwwwwwwwwwwwwwwwwwwwwwwwwwwwwwwwwwwww6w66wwwwwww",
"wwwwwwwwwwwwwwwwwwwwwww6wwwwwwwwwwwwwwwwwwwwwwwwwww666w66wwwwwww",
"wwwwwwwwwwwwwwwwwwww6ww666wwwwww----:w::wwwwwwwwwwwwwwwwwwwwwwww",
"wwwwww6wwwwwwwwwwwww6ww666wwww--:::22:22:wwwwwwwwwwwwwwwwwwwwwww",
"wwwwww6wwwwwwwwwwwww6ww666ww--22222222222:wwwwwwwwwwwwwwwwwwwwww",
"wwwwww666wwwwwwwwwwwwwwwww--:2:2222222:222:wwwwwwwwwwwwwwwwwwwww",
"wwwwwwwwwwwwwwwwwwwwwwwww-::222::222222522:wwwwwwwwwwwwwwwwwwwww",
"wwwwwwwwwwwwwwwwwwwwwwww-:22222222552222522:wwwww6wwwwwwwwwwwwww",
"wwwwwwwwwwwwwwwwwwwwwwwww-2:22222222252-222:wwwww6wwwwwwwwwwwwww",
"wwwwwwwwwwwwwwwwwwwwwwwww-22:::25222225:222:wwwww6wwwwwwwwwwwwww",
"wwwwwwwwwwwwwwwwwwwwwwww-:22::222-52222:-225:wwww66wwwwwwwwwwwww",
"wwwwwwwwwwwwwwwwwwwwwww-:22:-:222--52222:-25:wwwwwwwwwwwwwwwwwww",
"wwwwwwwwwwwwwwwwwwwwwwww-2:--::22-9---222-222-wwwwwwwwwwwwwwwwww",
"wwwwwwwwwwwwwwwwwwwwwwwww=:---::2-9999----:--wwwwwwwwwwwwwwwwwww",
"wwwwwwwwwwwwwwwwwwwwwwww=:----99229XX999XX:2wwwwwwwwwwwwwwwwwwww",
"wwwwwwwwwww66wwwwwwwwwwww=----09229e 999e :2wwwwwwwwwwwwwwwwwwww",
"wwwwwwwwwww66w66wwwwwwww====--09-29e#999e#922wwwwwwwwwwwwwwwwwww",
"wwwwwwwwwww66w66wwwwwwwww====--9-20000qqq09-wwwwwwwwwwwwwwwwwwww",
"wwwwwwwwww666w66wwwwwwwwwww===----0qqqqqqq0wwwwwwwwwwwwwwwwwwwww",
"wwwwwwwwwwwwwwwwwwwwwwwwwwwww====0qqqqqq00wwwwwwwwwwwwwwwwwwwwww",
"wwwwwwwwwwwwwwwwwwwwwwwwwwwwwwo=ooqqqqqq8wwwwwwwwwwwwwwwwwwwwwww",
"wwwwwwwwwwwwwwwwwwwwwwwwwwww.ooo>oO4444wOwwwwwwwwwwwwwwwwwwwwwww",
"wwwwwwwwwwwwwwwwwwwwwwwwwwooooo.o>o77$$oOwwwwwwwwwwwwwwwwwwwwwww",
"wwwwwwwwwwwwwwwwwwwwwwwwwoooo....@o%$,;OOwwwwwww66wwwwwwwwwwwwww",
"wwwwwwwwwwwwwwwwwwwwwwwwwoooo....<o$$$+@Owwwwwww66wwwwwwwwwwwwww",
"wwwwwwwwwwwwwwwwwwwwwwww.oooo....oo;$$oOOwwwwwww66w66wwwwwwwwwww",
"wwwwwwwwwwwwwwwwwwwwwww.oOoooo@@ooo;;$OOwwwwwwwwwwwwwwwwwwwwwwww",
"wwwwwwwwwwwwwwwwwwwwww..oooo.o@oooo,,;Oowwwwwwwwwwwwwwwwwwwwwwww",
"wwwwwwwwwwwwwwwwwwwww...ooOo00.o<oo$;,Oowwwwwwwwwwwwwwwwwwwwwwww",
"wwwwwwwwwwwwwwwwwww.....oo090000.o$&&*Oowwwwwwwwwwwwwwwwwwwwwwww",
"wwwwwwwwwwwwwwwww.....O@oqqqq0009o&&**Owwwwwwwwwwwwwwwwwwwwwwwww",
"wwwwwwwwwwwwwwww.....@@O@qqqq0099&1111owwwwwwwwwwwwwwwwwwwwwwwww",
"wwwwwwwwwwwwwwww......@@@@0000009<11111w6wwwww6wwwwwwwwwwwwwwwww",
"wwwwwwwwwwwwwwwo......oo>@<00009<11133116ww6ww6wwwwwwwwwwwwwwwww",
"wwwwwwwwwwwwwwwwooo..oooo>o>o1<<111333111ww6ww6wwwwwwwwwwwwwwwww",
"wwwwwwwwwwwwwwwwwwo..ooooo>o1<6o<11333311ww6ww6wwwwwwwwwwwwwwwww",
"wwwwwwwwww6wwwwww<<oooooooo3<66oo11133111wwwwwwwwwwwwwwwwwwwwwww",
"wwwwwwwwww6wwwww<<<11333331<666wo<111311wwwwwwwwwwwwwwwwwwwwwwww",
"wwwwwwwwww666www<<<1133331wwwwwwoo<<<3<wwwwwwwwwwwwwwwwwwwwwwwww",
"wwwwwwwwwwwwwwww9<<113311wwwwwwwwww999wwwwwwwwwwwwwwwwwwwwwwwwww",
"wwwwwwwwwwwwwww$$9<<<<1wwwwwwwwwww$%,,,%wwwwwwwwwwwwwwwwwwwwwwww",
"wwwwwwwwwwwwww&$%,99wwwwwwwwwwwwww$%,&,wwwwwwwwwwwwwwwwwwwwwwwww",
"wwwwwwwwwwwwww&&%&,%wwwwwwwwwwwwww&&===wwwwwwwwwwwwwwwwwwwwwwwww",
"wwwwwwwwwwwww&&&&&$wwwwwwwwwwwwwww&&&&$$wwwwwwwwwwwwwwwwwwwwwwww",
"wwwwwwwwwwwww&&&&==wwwwwwwwwwwwwww&&&$%,,wwwwwwwwwwwwwwwwwwwwwww",
"w66wwwwwwwwwww&&&&$$wwwwwwwwwwwwww&&&$,%%wwwwwwwwwwwwwwwwwwwwwww",
"w66wwww666666ww&&$%,,6wwwwwwww6666wwwwwww6666wwwww6666wwwwwww6ww",
"w66wwww666666www&$,%%6wwwwwwww6666wwwwwww6666wwwww6666wwwwwww6ww",
"www6666wwwwwww66wwwwww6666www6wwwwww6666wwwwww66wwwwww666666wwww"
};
