/* XPM */
static char *result[] = {
/* columns rows colors chars-per-pixel */
"64 64 29 1 ",
"  c black",
". c #0F0D18",
"X c #3E231E",
"o c #161323",
"O c #1A172A",
"+ c #231F37",
"@ c #2E2929",
"# c #363330",
"$ c #3E3A36",
"% c #462924",
"& c #51302A",
"* c #5D352E",
"= c #663931",
"- c #744732",
"; c #322C51",
": c #514B45",
"> c #8F442C",
", c #9E4C33",
"< c #8F563B",
"1 c #AB5236",
"2 c #93683E",
"3 c #A27058",
"4 c #3CA370",
"5 c #B6814C",
"6 c #C18950",
"7 c #D1975C",
"8 c #D9A066",
"9 c #8FDE5D",
"0 c #B2B2B2",
/* pixels */
"9999999999999999999999999999999999999999999999999999999999999999",
"9999999999999999499999999999999999999999999999999999999999999999",
"9999999999999999499999999999999999999999999999999999999999994999",
"9999999999999499499999999999999999999999999999999999999999999499",
"9999999999999999999999999999999999999999999999999999949999999949",
"9999999999999999999999999999999999999999999999999999949999999999",
"9999999999999999999999999999999999999999999999999999999999999999",
"9999999999999999999999999999999999999499999999999999999999999999",
"9999999999999999999999999999999999999499999999999999999999999999",
"9999999999999999999999999999999999449499999999999999999999999999",
"9999999999999999999999999999999999999999999999999999999999999999",
"9999999999999999999999999999999999999999999999999999999999999999",
"9999999999999999999999999999999999999999999999999999999999999999",
"9999999999999999999999999999999999999999999999999999999449999999",
"9999999999999999999999999999999999999999999999999999949449999999",
"9999999999999999999999999999999999999999999999999999949449999999",
"9999999999999999999999949999999999999999999999999994449449999999",
"9999999999999999999949944499999=====-----99999999999999999999999",
"99999949999999999999499444999==<<<<<<<<<<-9999999999999999999999",
"999999499999999999994994449==-<-<<<<<<<-<<-999999999999999999999",
"99999944499999999999999999=--<<<--<<<<<<3<-999999999999999999999",
"9999999999999999999999999=-<<<<<<<<33<<<<3<-99999999999999999999",
"999999999999999999999999*-<<-<<<<<<<<<3<=<<<-9999499999999999999",
"9999999999999999999999999*=<<---<3<<<<<3<=<<-9999499999999999999",
"9999999999999999999999999=-<<--<<<=3<<<<-=<<3-999499999999999999",
"999999999999999999999999=-<<-=-<<<<=<<<<<-=<3-999449999999999999",
"999999999999999999999999*=<-==--<<=6=<<<<-=<<-999999999999999999",
"99999999999999999999999999*-===--<=66==<<<=-==999999999999999999",
"99999999999999999999999999*====66<=6XX6===X-<=999999999999999999",
"9999999999999999999999999*-====76<<60 6660 -<9999999999999999999",
"99999999999449999999999999***==76<<60@6660@=<9999999999999999999",
"9999999999944944999999999*****==6=<777788876=9999999999999999999",
"9999999999944944999999999999***===<788888887=9999999999999999999",
"99999999994449449999999999999oo**==88888877999999999999999999999",
"99999999999999999999999999977ooooo=oo888859999999999999999999999",
"9999999999999999999999996777ooooo.+;;O22oo9999999999999999999999",
"9999999999999999999999997777o..ooo+;oo##oo9999999999999999999999",
"999999999999999999999999667o...o.ooo+o##oo9999999999999999999999",
"999999999999999999999999967o......o77o##o99999994499999999999999",
"99999999999999999999999999o.O....7677777o99999994499999999999999",
"9999999999999999999999999o..oo..88887777699999994494499999999999",
"999999999999999999999999oo.ooo.888887776699999999999999999999999",
"9999999999999999999999.o...oOooo77777777699999999999999999999999",
"999999999999999999999......Oo+;+oo777776999999999999999999999999",
"999999999999999999999o...ooooooo;>o%&oo9999999999999999999999999",
"9999999999999999999ooo.oooooooooo;,>>oo9999999999999999999999999",
"999999999999999999oooooooo++++oooo,,,>o9999999999999999999999999",
"999999999999999999oooo+++++++o>oo1111,>9499999499999999999999999",
"999999999999999999ooooooo++ooooo,11111,,499499499999999999999999",
"999999999999999##9>>oooooooooo>,,,11111>499499499999999999999999",
"99999999999999%##6>>>ooooooo1>4>,,,,,,>>999499499999999999999999",
"9999999999499%%$$6>>>,,11111144oo>>,,>66:99999999999999999999999",
"99999999994%%%%%::66>>,,111,4449ooo>>6::%%9##9999999999999999999",
"99999999994%%%%*%%$99>,,,,,9999999999#$:%*#::#999999999999999999",
"999999999999%%%%**9999999999999999999#$%*%$::#999999999999999999",
"999999999999%%%##99999999999999999999%%%*%#$:9999999999999999999",
"9999999999999#$::999999999999999999999%%%%%#99999999999999999999",
"9999999999999#$$:9999999999999999999999%%%%999999999999999999999",
"9999999999999999999999999999999999999999%%9999999999999999999999",
"9999999999999999999999999999999999999999999999999999999999999999",
"9449999999999999999999999999999999999999999999999999999999999999",
"9449999444444999944444999999994444999999944449999944449999999499",
"9449999444444999944444999999994444999999944449999944449999999499",
"9994444999999944999999444499949999994444999999449999994444449999"
};
