/* XPM */
static char *result[] = {
/* columns rows colors chars-per-pixel */
"64 64 32 1 ",
"  c black",
". c #0F0D18",
"X c #3E231E",
"o c #161323",
"O c #1A172A",
"+ c #1E1A2E",
"@ c #231F37",
"# c #2E2929",
"$ c #363330",
"% c #3E3A36",
"& c #462924",
"* c #51302A",
"= c #5D352E",
"- c #663931",
"; c #46413C",
": c #744732",
"> c #322C51",
", c #514B45",
"< c #8F442C",
"1 c #9E4C33",
"2 c #8F563B",
"3 c #AB5236",
"4 c #93683E",
"5 c #A27058",
"6 c #3CA370",
"7 c #B6804A",
"8 c #B6814C",
"9 c #C18950",
"0 c #D1975C",
"q c #D9A066",
"w c #8FDE5D",
"e c #B2B2B2",
/* pixels */
"wwwwwwwwwwwwwwwwwwwwwwwwwwwwwwwwwwwwwwwwwwwwwwwwwwwwwwwwwwwwwwww",
"wwwwwwwwwwwwwwww6wwwwwwwwwwwwwwwwwwwwwwwwwwwwwwwwwwwwwwwwwwwwwww",
"wwwwwwwwwwwwwwww6wwwwwwwwwwwwwwwwwwwwwwwwwwwwwwwwwwwwwwwwwww6www",
"wwwwwwwwwwwww6ww6wwwwwwwwwwwwwwwwwwwwwwwwwwwwwwwwwwwwwwwwwwww6ww",
"wwwwwwwwwwwwwwwwwwwwwwwwwwwwwwwwwwwwwwwwwwwwwwwwwwwww6wwwwwwww6w",
"wwwwwwwwwwwwwwwwwwwwwwwwwwwwwwwwwwwwwwwwwwwwwwwwwwwww6wwwwwwwwww",
"wwwwwwwwwwwwwwwwwwwwwwwwwwwwwwwwwwwwwwwwwwwwwwwwwwwwwwwwwwwwwwww",
"wwwwwwwwwwwwwwwwwwwwwwwwwwwwwwwwwwwww6wwwwwwwwwwwwwwwwwwwwwwwwww",
"wwwwwwwwwwwwwwwwwwwwwwwwwwwwwwwwwwwww6wwwwwwwwwwwwwwwwwwwwwwwwww",
"wwwwwwwwwwwwwwwwwwwwwwwwwwwwwwwwww66w6wwwwwwwwwwwwwwwwwwwwwwwwww",
"wwwwwwwwwwwwwwwwwwwwwwwwwwwwwwwwwwwwwwwwwwwwwwwwwwwwwwwwwwwwwwww",
"wwwwwwwwwwwwwwwwwwwwwwwwwwwwwwwwwwwwwwwwwwwwwwwwwwwwwwwwwwwwwwww",
"wwwwwwwwwwwwwwwwwwwwwwwwwwwwwwwwwwwwwwwwwwwwwwwwwwwwwwwwwwwwwwww",
"wwwwwwwwwwwwwwwwwwwwwwwwwwwwwwwwwwwwwwwwwwwwwwwwwwwwwww66wwwwwww",
"wwwwwwwwwwwwwwwwwwwwwwwwwwwwwwwwwwwwwwwwwwwwwwwwwwwww6w66wwwwwww",
"wwwwwwwwwwwwwwwwwwwwwwwwwwwwwwwwwwwwwwwwwwwwwwwwwwwww6w66wwwwwww",
"wwwwwwwwwwwwwwwwwwwwwww6wwwwwwwwwwwwwwwwwwwwwwwwwww666w66wwwwwww",
"wwwwwwwwwwwwwwwwwwww6ww666wwwww-----:::::wwwwwwwwwwwwwwwwwwwwwww",
"wwwwww6wwwwwwwwwwwww6ww666www--2222222222:wwwwwwwwwwwwwwwwwwwwww",
"wwwwww6wwwwwwwwwwwww6ww666w--:2:2222222:22:wwwwwwwwwwwwwwwwwwwww",
"wwwwww666wwwwwwwwwwwwwwwww-::222::22222252:wwwwwwwwwwwwwwwwwwwww",
"wwwwwwwwwwwwwwwwwwwwwwwww-:2222222255222252:wwwwwwwwwwwwwwwwwwww",
"wwwwwwwwwwwwwwwwwwwwwwww=:22:22222222252-222:wwww6wwwwwwwwwwwwww",
"wwwwwwwwwwwwwwwwwwwwwwwww=-22:::252222252-22:wwww6wwwwwwwwwwwwww",
"wwwwwwwwwwwwwwwwwwwwwwwww-:22::222-52222:-225:www6wwwwwwwwwwwwww",
"wwwwwwwwwwwwwwwwwwwwwwww-:22:-:2222-22222:-25:www66wwwwwwwwwwwww",
"wwwwwwwwwwwwwwwwwwwwwwww=-2:--::22-9-2222:-22:wwwwwwwwwwwwwwwwww",
"wwwwwwwwwwwwwwwwwwwwwwwwww=:---::2-99--222-:--wwwwwwwwwwwwwwwwww",
"wwwwwwwwwwwwwwwwwwwwwwwwww=----992-9XX9---X:2-wwwwwwwwwwwwwwwwww",
"wwwwwwwwwwwwwwwwwwwwwwwww=:----09229e 999e :2wwwwwwwwwwwwwwwwwww",
"wwwwwwwwwww66wwwwwwwwwwwww===--09229e#999e#-2wwwwwwwwwwwwwwwwwww",
"wwwwwwwwwww66w66wwwwwwwww=====--9-20000qqq09-wwwwwwwwwwwwwwwwwww",
"wwwwwwwwwww66w66wwwwwwwwwwww===---20qqqqqqq0-wwwwwwwwwwwwwwwwwww",
"wwwwwwwwww666w66wwwwwwwwwwwooo===--qqqqqq00wwwwwwwwwwwwwwwwwwwww",
"wwwwwwwwwwwwwwwwwwwwwwwwwOoooooo=-oqqqqqq8wwwwwwwwwwwwwwwwwwwwww",
"wwwwwwwwwwwwwwwwwwwwwww9oooo..o.@>>O4444wwwwwwwwwwwwwwwwwwwwwwww",
"wwwwwwwwwwwwwwwwwwwwww90Oooo.ooo@@>o77Oowwwwwwwwwwwwwwwwwwwwwwww",
"wwwwwwwwwwwwwwwwwwww90q09o.o...oo@@o%o@Owwwwwwwwwwwwwwwwwwwwwwww",
"wwwwwwwwwwwwwwwwwwww90qq0Oo@....o@<o$o+@Owwwwwww66wwwwwwwwwwwwww",
"wwwwwwwwwwwwwwwwwww90qq00..@@...o@o$$o+OOwwwwwww66wwwwwwwwwwwwww",
"wwwwwwwwwwwwwwwwwww90qq0.oooo...oo,$$oOO0wwwwwww66w66wwwwwwwwwww",
"wwwwwwwwwwwwwwwwwww9000oooooo...<o$$oOO0wwwwwwwwwwwwwwwwwwwwwwww",
"wwwwwwwwwwwwwwwwww.990.oOOOooo.oo$,o@O9000wwwwwwwwwwwwwwwwwwwwww",
"wwwwwwwwwwwwwwww....9.OO@@@@<oo$$;;o@O9qq00wwwwwwwwwwwwwwwwwwwww",
"wwwwwwwwwwwwwwww......@@>@@@@o,$$$$oOO90q09wwwwwwwwwwwwwwwwwwwww",
"wwwwwwwwwwwwwwwwo...o.@o>><>o***&&&ooo9009wwwwwwwwwwwwwwwwwwwwww",
"wwwwwwwwwwwwwwwwwoooooooo>oo*****&&oooo99wwwwwwwwwwwwwwwwwwwwwww",
"wwwwwwwwwwwwwwwwwwwoooooooo<<<<<1111Ooow6wwwww6wwwwwwwwwwwwwwwww",
"wwwwwwwwwwww&&&&$$w<<<<<<111111<11111ooo6ww6ww6wwwwwwwwwwwwwwwww",
"wwwwwwwwwwww&&&&%%9<<<11113331<11133113o6ww6ww6wwwwwwwwwwwwwwwww",
"wwwwwwwwwwww&&&&,9<<<11333333<1113331113www6ww6wwwwwwwwwwwwwwwww",
"wwwwwwwwww6w&&&=&9<<<<1133311663333333333wwwwwwwwwwwwwwwwwwwwwww",
"wwwwwwwwww6w$$&=%%w<<<11111w666o<33333333wwwwwwwwwwwwwwwwwwwwwww",
"wwwwwwwwww66,%$wwwwwwwwwwwwwwwwww<1113313wwwwwwwwwwwwwwwwwwwwwww",
"wwwwwwwwwwww%,$wwwwwwwwwwwwwwwwwww<11131<wwwwwwwwwwwwwwwwwwwwwww",
"wwwwwwwwwwww%,wwwwwwwwwwwwwwwwwwwww<<<3<wwwwwwwwwwwwwwwwwwwwwwww",
"wwwwwwwwwwwwwwwwwwwwwwwwwwwwwwwwwwww999wwwwwwwwwwwwwwwwwwwwwwwww",
"wwwwwwwwwwwwwwwwwwwwwwwwwwwwwwwwwww$%,,,%wwwwwwwwwwwwwwwwwwwwwww",
"wwwwwwwwwwwwwwwwwwwwwwwwwwwwwwwwwww$%,&,wwwwwwwwwwwwwwwwwwwwwwww",
"wwwwwwwwwwwwwwwwwwwwwwwwwwwwwwwwwww&&===wwwwwwwwwwwwwwwwwwwwwwww",
"w66wwwwwwwwwwwwwwwwwwwwwwwwwwwwwwww&&&&$$wwwwwwwwwwwwwwwwwwwwwww",
"w66wwww666666wwww66666wwwwwwww6666w&&&$%,,666wwwww6666wwwwwww6ww",
"w66wwww666666wwww66666wwwwwwww6666w&&&$,%%666wwwww6666wwwwwww6ww",
"www6666wwwwwww66wwwwww6666www6wwwwww6666wwwwww66wwwwww666666wwww"
};
