/* XPM */
static char *result[] = {
/* columns rows colors chars-per-pixel */
"64 64 32 1 ",
"  c black",
". c #0F0D18",
"X c #3E231E",
"o c #161323",
"O c #1A172A",
"+ c #1E1A2E",
"@ c #231F37",
"# c #2E2929",
"$ c #363330",
"% c #3E3A36",
"& c #462924",
"* c #51302A",
"= c #5D352E",
"- c #663931",
"; c #46413C",
": c #744732",
"> c #322C51",
", c #514B45",
"< c #8F442C",
"1 c #9E4C33",
"2 c #8F563B",
"3 c #AB5236",
"4 c #93683E",
"5 c #A27058",
"6 c #3CA370",
"7 c #B6804A",
"8 c #B6814C",
"9 c #C18950",
"0 c #D1975C",
"q c #D9A066",
"w c #8FDE5D",
"e c #B2B2B2",
/* pixels */
"wwwwwwwwwwwwwwwwwwwwwwwwwwwwwwwwwwwwwwwwwwwwwwwwwwwwwwwwwwwwwwww",
"wwwwwwwwwwwwwwww6wwwwwwwwwwwwwwwwwwwwwwwwwwwwwwwwwwwwwwwwwwwwwww",
"wwwwwwwwwwwwwwww6wwwwwwwwwwwwwwwwwwwwwwwwwwwwwwwwwwwwwwwwwww6www",
"wwwwwwwwwwwww6ww6wwwwwwwwwwwwwwwwwwwwwwwwwwwwwwwwwwwwwwwwwwww6ww",
"wwwwwwwwwwwwwwwwwwwwwwwwwwwwwwwwwwwwwwwwwwwwwwwwwwwww6wwwwwwww6w",
"wwwwwwwwwwwwwwwwwwwwwwwwwwwwwwwwwwwwwwwwwwwwwwwwwwwww6wwwwwwwwww",
"wwwwwwwwwwwwwwwwwwwwwwwwwwwwwwwwwwwwwwwwwwwwwwwwwwwwwwwwwwwwwwww",
"wwwwwwwwwwwwwwwwwwwwwwwwwwwwwwwwwwwww6wwwwwwwwwwwwwwwwwwwwwwwwww",
"wwwwwwwwwwwwwwwwwwwwwwwwwwwwwwwwwwwww6wwwwwwwwwwwwwwwwwwwwwwwwww",
"wwwwwwwwwwwwwwwwwwwwwwwwwwwwwwwwww66w6wwwwwwwwwwwwwwwwwwwwwwwwww",
"wwwwwwwwwwwwwwwwwwwwwwwwwwwwwwwwwwwwwwwwwwwwwwwwwwwwwwwwwwwwwwww",
"wwwwwwwwwwwwwwwwwwwwwwwwwwwwwwwwwwwwwwwwwwwwwwwwwwwwwwwwwwwwwwww",
"wwwwwwwwwwwwwwwwwwwwwwwwwwwwwwwwwwwwwwwwwwwwwwwwwwwwwwwwwwwwwwww",
"wwwwwwwwwwwwwwwwwwwwwwwwwwwwwwwwwwwwwwwwwwwwwwwwwwwwwww66wwwwwww",
"wwwwwwwwwwwwwwwwwwwwwwwwwwwwwwwwwwwwwwwwwwwwwwwwwwwww6w66wwwwwww",
"wwwwwwwwwwwwwwwwwwwwwwwwwwwwwwwwwwwwwwwwwwwwwwwwwwwww6w66wwwwwww",
"wwwwwwwwwwwwwwwwwwwwwww6wwwwwwwwwwwwwwwwwwwwwwwwwww666w66wwwwwww",
"wwwwwwwwwwwwwwwwwwww6ww666wwwwww----:w::wwwwwwwwwwwwwwwwwwwwwwww",
"wwwwww6wwwwwwwwwwwww6ww666wwww--:::22:22:wwwwwwwwwwwwwwwwwwwwwww",
"wwwwww6wwwwwwwwwwwww6ww666ww--22222222222:wwwwwwwwwwwwwwwwwwwwww",
"wwwwww666wwwwwwwwwwwwwwwww--:2:2222222:222:wwwwwwwwwwwwwwwwwwwww",
"wwwwwwwwwwwwwwwwwwwwwwwww-::222::222222522:wwwwwwwwwwwwwwwwwwwww",
"wwwwwwwwwwwwwwwwwwwwwwww-:22222222552222522:wwwww6wwwwwwwwwwwwww",
"wwwwwwwwwwwwwwwwwwwwwwwww-2:22222222252-222:wwwww6wwwwwwwwwwwwww",
"wwwwwwwwwwwwwwwwwwwwwwwww-22:::25222225:222:wwwww6wwwwwwwwwwwwww",
"wwwwwwwwwwwwwwwwwwwwwwww-:22::222-52222:-225:wwww66wwwwwwwwwwwww",
"wwwwwwwwwwwwwwwwwwwwwww-:22:-:222--52222:-25:wwwwwwwwwwwwwwwwwww",
"wwwwwwwwwwwwwwwwwwwwwwww-2:--::22-9---222-222-wwwwwwwwwwwwwwwwww",
"wwwwwwwwwwwwwwwwwwwwwwwww=:---::2-9999----:--wwwwwwwwwwwwwwwwwww",
"wwwwwwwwwwwwwwwwwwwwwwww=:----99229XX999XX:2wwwwwwwwwwwwwwwwwwww",
"wwwwwwwwwww66wwwwwwwwwwww=----09229e 999e :2wwwwwwwwwwwwwwwwwwww",
"wwwwwwwwwww66w66wwwwwwww====--09-29e#999e#922wwwwwwwwwwwwwwwwwww",
"wwwwwwwwwww66w66wwwwwwwww====--9-20000qqq09-wwwwwwwwwwwwwwwwwwww",
"wwwwwwwwww666w66wwwwwwwwwww===----0qqqqqqq0wwwwwwwwwwwwwwwwwwwww",
"wwwwwwwwwwwwwwwwwwwwwwwwwwwww====0qqqqqq00wwwwwwwwwwwwwwwwwwwwww",
"wwwwwwwwwwwwwwwwwwwwwwwwwwooooo=>oqqqqqq8wwwwwwwwwwwwwwwwwwwwwww",
"wwwwwwwwwwwwwwwwwwwwwwwwOooooo.@>>O4444wwwwwwwwwwwwwwwwwwwwwwwww",
"wwwwwwwwwwwwwwwwwwwwww9oooooooo@@>o77Oowwwwwwwwwwwwwwwwwwwwwwwww",
"wwwwwwwwwwwwwwwwwwwww90Ooooo..oo@@o%o@Owwwwwwwww66wwwwwwwwwwwwww",
"wwwwwwwwwwwwwwwwwww90q09o.o....o@<o$o+@Owwwwwwww66wwwwwwwwwwwwww",
"wwwwwwwwwwwwwwwwwww90qq0Oo@....o@o$$o+OOwwwwwwww66w66wwwwwwwwwww",
"wwwwwwwwwwwwwwwwww90qq00..@@...oo,$$oOO0wwwwwwwwwwwwwwwwwwwwwwww",
"wwwwwwwwwwwwwwwwww90qq0ooooo..+<o;,o@O9000wwwwwwwwwwwwwwwwwwwwww",
"wwwwwwwwwwwwwwwwww9000oOOOooo.oo$;;o@O9qq00wwwwwwwwwwwwwwwwwwwww",
"wwwwwwwwwwwwwwwwwo990.oO@@@<oo$$$$$oOO90q09wwwwwwwwwwwwwwwwwwwww",
"wwwwwwwwwwwwwwww...9.OO@@@@@o,,*&&&ooo9009wwwwwwwwwwwwwwwwwwwwww",
"wwwwwwwwwwwwwww......@@>><>o*****&&oooo99wwwwwwwwwwwwwwwwwwwwwww",
"wwwwwwwwwwwwwww.......@o>>o***<<1111Ooow6wwwww6wwwwwwwwwwwwwwwww",
"wwwwwwwwwwwwwwwo......oooo<<<<<<11111ooo6ww6ww6wwwwwwwwwwwwwwwww",
"wwwwwwwwwwwwwwwwooo...ooo11111<1113311oo6ww6ww6wwwwwwwwwwwwwwwww",
"wwwwwwwwwwwwwwwwwwo..oo133331<111333111owww6ww6wwwwwwwwwwwwwwwww",
"wwwwwwwwww6wwwwww<ooo1333333<6<11333311owwwwwwwwwwwwwwwwwwwwwwww",
"wwwwwwwwww6wwwww<<<11333331<66611133111owwwwwwwwwwwwwwwwwwwwwwww",
"wwwwwwwwww666www<<<1133331wwwww<111311owwwwwwwwwwwwwwwwwwwwwwwww",
"wwwwwwwwwwwwwwww9<<113311wwwwwww<<<3<wwwwwwwwwwwwwwwwwwwwwwwwwww",
"wwwwwwwwwwwwwww$$9<<<<1wwwwwwwwww999wwwwwwwwwwwwwwwwwwwwwwwwwwww",
"wwwwwwwwwwwwww&$%,99wwwwwwwwwwww$%,,,%wwwwwwwwwwwwwwwwwwwwwwwwww",
"wwwwwwwwwwwwww&&%&,%wwwwwwwwwwww$%,&,wwwwwwwwwwwwwwwwwwwwwwwwwww",
"wwwwwwwwwwwww&&&&&$wwwwwwwwwwwww&&===wwwwwwwwwwwwwwwwwwwwwwwwwww",
"wwwwwwwwwwwww&&&&==wwwwwwwwwwwww&&&&$$wwwwwwwwwwwwwwwwwwwwwwwwww",
"w66wwwwwwwwwww&&&&$$wwwwwwwwwwww&&&$%,,wwwwwwwwwwwwwwwwwwwwwwwww",
"w66wwww666666ww&&$%,,6wwwwwwww66&&&$,%%ww6666wwwww6666wwwwwww6ww",
"w66wwww666666www&$,%%6wwwwwwww6666wwwwwww6666wwwww6666wwwwwww6ww",
"www6666wwwwwww66wwwwww6666www6wwwwww6666wwwwww66wwwwww666666wwww"
};
