/* XPM */
static char *result[] = {
/* columns rows colors chars-per-pixel */
"64 64 32 1 ",
"  c black",
". c #0F0D18",
"X c #3E231E",
"o c #161323",
"O c #1A172A",
"+ c #1E1A2E",
"@ c #231F37",
"# c #2E2929",
"$ c #363330",
"% c #3E3A36",
"& c #462924",
"* c #51302A",
"= c #5D352E",
"- c #663931",
"; c #46413C",
": c #744732",
"> c #322C51",
", c #514B45",
"< c #8F442C",
"1 c #9E4C33",
"2 c #8F563B",
"3 c #AB5236",
"4 c #93683E",
"5 c #A27058",
"6 c #3CA370",
"7 c #B6804A",
"8 c #B6814C",
"9 c #C18950",
"0 c #D1975C",
"q c #D9A066",
"w c #8FDE5D",
"e c #B2B2B2",
/* pixels */
"wwwwwwwwwwwwwwwwwwwwwwwwwwwwwwwwwwwwwwwwwwwwwwwwwwwwwwwwwwwwwwww",
"wwwwwwwwwwwwwwww6wwwwwwwwwwwwwwwwwwwwwwwwwwwwwwwwwwwwwwwwwwwwwww",
"wwwwwwwwwwwwwwww6wwwwwwwwwwwwwwwwwwwwwwwwwwwwwwwwwwwwwwwwwww6www",
"wwwwwwwwwwwww6ww6wwwwwwwwwwwwwwwwwwwwwwwwwwwwwwwwwwwwwwwwwwww6ww",
"wwwwwwwwwwwwwwwwwwwwwwwwwwwwwwwwwwwwwwwwwwwwwwwwwwwww6wwwwwwww6w",
"wwwwwwwwwwwwwwwwwwwwwwwwwwwwwwwwwwwwwwwwwwwwwwwwwwwww6wwwwwwwwww",
"wwwwwwwwwwwwwwwwwwwwwwwwwwwwwwwwwwwwwwwwwwwwwwwwwwwwwwwwwwwwwwww",
"wwwwwwwwwwwwwwwwwwwwwwwwwwwwwwwwwwwww6wwwwwwwwwwwwwwwwwwwwwwwwww",
"wwwwwwwwwwwwwwwwwwwwwwwwwwwwwwwwwwwww6wwwwwwwwwwwwwwwwwwwwwwwwww",
"wwwwwwwwwwwwwwwwwwwwwwwwwwwwwwwwww66w6wwwwwwwwwwwwwwwwwwwwwwwwww",
"wwwwwwwwwwwwwwwwwwwwwwwwwwwwwwwwwwwwwwwwwwwwwwwwwwwwwwwwwwwwwwww",
"wwwwwwwwwwwwwwwwwwwwwwwwwwwwwwwwwwwwwwwwwwwwwwwwwwwwwwwwwwwwwwww",
"wwwwwwwwwwwwwwwwwwwwwwwwwwwwwwwwwwwwwwwwwwwwwwwwwwwwwwwwwwwwwwww",
"wwwwwwwwwwwwwwwwwwwwwwwwwwwwwwwwwwwwwwwwwwwwwwwwwwwwwww66wwwwwww",
"wwwwwwwwwwwwwwwwwwwwwwwwwwwwwwwwwwwwwwwwwwwwwwwwwwwww6w66wwwwwww",
"wwwwwwwwwwwwwwwwwwwwwwwwwwwwwwwwwwwwwwwwwwwwwwwwwwwww6w66wwwwwww",
"wwwwwwwwwwwwwwwwwwwwwww6wwwwwwwwwwwwwwwwwwwwwwwwwww666w66wwwwwww",
"wwwwwwwwwwwwwwwwwwww6ww666wwwww-----:::::wwwwwwwwwwwwwwwwwwwwwww",
"wwwwww6wwwwwwwwwwwww6ww666www--2222222222:wwwwwwwwwwwwwwwwwwwwww",
"wwwwww6wwwwwwwwwwwww6ww666w--:2:2222222:22:wwwwwwwwwwwwwwwwwwwww",
"wwwwww666wwwwwwwwwwwwwwwww-::222::22222252:wwwwwwwwwwwwwwwwwwwww",
"wwwwwwwwwwwwwwwwwwwwwwwww-:2222222255222252:wwwwwwwwwwwwwwwwwwww",
"wwwwwwwwwwwwwwwwwwwwwwww=:22:22222222252-222:wwww6wwwwwwwwwwwwww",
"wwwwwwwwwwwwwwwwwwwwwwwww=-22:::252222252-22:wwww6wwwwwwwwwwwwww",
"wwwwwwwwwwwwwwwwwwwwwwwww-:22::222-52222:-225:www6wwwwwwwwwwwwww",
"wwwwwwwwwwwwwwwwwwwwwwww-:22:-:2222-22222:-25:www66wwwwwwwwwwwww",
"wwwwwwwwwwwwwwwwwwwwwwww=-2:--::22-9-2222:-22:wwwwwwwwwwwwwwwwww",
"wwwwwwwwwwwwwwwwwwwwwwwwww=:---::2-99--222-:--wwwwwwwwwwwwwwwwww",
"wwwwwwwwwwwwwwwwwwwwwwwwww=----992-9XX9---X:2-wwwwwwwwwwwwwwwwww",
"wwwwwwwwwwwwwwwwwwwwwwwww=:----09229e 999e :2wwwwwwwwwwwwwwwwwww",
"wwwwwwwwwww66wwwwwwwwwwwww===--09229e#999e#-2wwwwwwwwwwwwwwwwwww",
"wwwwwwwwwww66w66wwwwwwwww=====--9-20000qqq09-wwwwwwwwwwwwwwwwwww",
"wwwwwwwwwww66w66wwwwwwwwwwww===---20qqqqqqq0-wwwwwwwwwwwwwwwwwww",
"wwwwwwwwww666w66wwwwwwwwOooooo===--qqqqqq00wwwwwwwwwwwwwwwwwwwww",
"wwwwwwwwwwwwwwwwwwwwww9ooooooooo=-oqqqqqq8wwwwwwwwwwwwwwwwwwwwww",
"wwwwwwwwwwwwwwwwwwwww90Ooooo..o.@>>O4444wwwwwwwwwwwwwwwwwwwwwwww",
"wwwwwwwwwwwwwwwwwww90q09o.o..ooo@@>o77Oowwwwwwwwwwwwwwwwwwwwwwww",
"wwwwwwwwwwwwwwwwwww90qq0Oo@....oo@<o%o@Owwwwwwwwwwwwwwwwwwwwwwww",
"wwwwwwwwwwwwwwwwww90qq00..@@....o@o%$o+@Owwwwwww66wwwwwwwwwwwwww",
"wwwwwwwwwwwwwwwwww90qq0wwoo@@...oo$$$o+OOwwwwwww66wwwwwwwwwwwwww",
"wwwwwwwwwwwwwwwwww9000w.oo+oo..+<o%$$oOO0000wwww66w66wwwwwwwwwww",
"wwwwwwwwwwwwwwwww.990...@oOOoo.oo;;,o@O90qq00wwwwwwwwwwwwwwwwwww",
"wwwwwwwwwwwwwwww...9..@>@@@@<oo$$$;;o@O900q09wwwwwwwwwwwwwwwwwww",
"wwwwwwwwwwwwwww......@o>>@@@oo$$$$$$oOO90009wwwwwwwwwwwwwwwwwwww",
"wwwwwwwwwwwwwwwo.....ooo><ooo;,,*&&&ooww999wwwwwwwwwwwwwwwwwwwww",
"wwwwwwwwwwwwwwwwo...o.ooooooo*****&&oowwwwwwwwwwwwwwwwwwwwwwwwww",
"wwwwwwwwwwwwwwwwwoooooooooo****<<1111<owwwwwwwwwwwwwwwwwwwwwwwww",
"wwwwwwwwwwwwwwwwwwww<oooo<<<<<<<<11111<w6wwwww6wwwwwwwwwwwwwwwww",
"wwwwwwwwwwwwwwwwwww<<<<<<<11111<111331116ww6ww6wwwwwwwwwwwwwwwww",
"wwwwwwwwwwwwwww$$w<<<<11113331<11133333<6ww6ww6wwwwwwwwwwwwwwwww",
"wwwwwwwwwwwwww&$$9<<<11133333<o<111111<<www6ww6wwwwwwwwwwwwwwwww",
"wwwwwwwwww6ww&&%%9<<<1133333366wo1111<99,wwwwwwwwwwwwwwwwwwwwwww",
"wwwwwwwwww6w&&&&,,99<<113331666wwoo119,,&&w$$wwwwwwwwwwwwwwwwwww",
"wwwwwwwwww6&&&&=&&%ww<11111wwwwwwwwww$%,&=$,,$wwwwwwwwwwwwwwwwww",
"wwwwwwwwwww&&&&&==wwwwwwwwwwwwwwwwwww$%&=&%,,$wwwwwwwwwwwwwwwwww",
"wwwwwwwwwwww&&&$$wwwwwwwwwwwwwwwwwwww&&&=&$%,wwwwwwwwwwwwwwwwwww",
"wwwwwwwwwwwww&$%,,wwwwwwwwwwwwwwwwwwww&&&&&$wwwwwwwwwwwwwwwwwwww",
"wwwwwwwwwwwwww$%%,wwwwwwwwwwwwwwwwwwwww&&&&wwwwwwwwwwwwwwwwwwwww",
"wwwwwwwwwwwwwwwwwwwwwwwwwwwwwwwwwwwwwwww&&wwwwwwwwwwwwwwwwwwwwww",
"wwwwwwwwwwwwwwwwwwwwwwwwwwwwwwwwwwwwwwwwwwwwwwwwwwwwwwwwwwwwwwww",
"w66wwwwwwwwwwwwwwwwwwwwwwwwwwwwwwwwwwwwwwwwwwwwwwwwwwwwwwwwwwwww",
"w66wwww666666wwww66666wwwwwwww6666wwwwwww6666wwwww6666wwwwwww6ww",
"w66wwww666666wwww66666wwwwwwww6666wwwwwww6666wwwww6666wwwwwww6ww",
"www6666wwwwwww66wwwwww6666www6wwwwww6666wwwwww66wwwwww666666wwww"
};
