/* XPM */
static char *result[] = {
/* columns rows colors chars-per-pixel */
"64 64 34 1 ",
"  c black",
". c #0F0D18",
"X c #3E231E",
"o c #161323",
"O c #1A172A",
"+ c #1E1A2E",
"@ c #231F37",
"# c #2E2929",
"$ c #363330",
"% c #3E3A36",
"& c #462924",
"* c #51302A",
"= c #5D352E",
"- c #663931",
"; c #46413C",
": c #744732",
"> c #322C51",
", c #514B45",
"< c #8F442C",
"1 c #964D31",
"2 c #9E4C33",
"3 c #8F563B",
"4 c #AB5236",
"5 c #93683E",
"6 c #A27058",
"7 c #3CA370",
"8 c #B6804A",
"9 c #B6814C",
"0 c #C18A4B",
"q c #C18950",
"w c #D1975C",
"e c #D9A066",
"r c #8FDE5D",
"t c #B2B2B2",
/* pixels */
"rrrrrrrrrrrrrrrrrrrrrrrrrrrrrrrrrrrrrrrrrrrrrrrrrrrrrrrrrrrrrrrr",
"rrrrrrrrrrrrrrrr7rrrrrrrrrrrrrrrrrrrrrrrrrrrrrrrrrrrrrrrrrrrrrrr",
"rrrrrrrrrrrrrrrr7rrrrrrrrrrrrrrrrrrrrrrrrrrrrrrrrrrrrrrrrrrr7rrr",
"rrrrrrrrrrrrr7rr7rrrrrrrrrrrrrrrrrrrrrrrrrrrrrrrrrrrrrrrrrrrr7rr",
"rrrrrrrrrrrrrrrrrrrrrrrrrrrrrrrrrrrrrrrrrrrrrrrrrrrrr7rrrrrrrr7r",
"rrrrrrrrrrrrrrrrrrrrrrrrrrrrrrrrrrrrrrrrrrrrrrrrrrrrr7rrrrrrrrrr",
"rrrrrrrrrrrrrrrrrrrrrrrrrrrrrrrrrrrrrrrrrrrrrrrrrrrrrrrrrrrrrrrr",
"rrrrrrrrrrrrrrrrrrrrrrrrrrrrrrrrrrrrr7rrrrrrrrrrrrrrrrrrrrrrrrrr",
"rrrrrrrrrrrrrrrrrrrrrrrrrrrrrrrrrrrrr7rrrrrrrrrrrrrrrrrrrrrrrrrr",
"rrrrrrrrrrrrrrrrrrrrrrrrrrrrrrrrrr77r7rrrrrrrrrrrrrrrrrrrrrrrrrr",
"rrrrrrrrrrrrrrrrrrrrrrrrrrrrrrrrrrrrrrrrrrrrrrrrrrrrrrrrrrrrrrrr",
"rrrrrrrrrrrrrrrrrrrrrrrrrrrrrrrrrrrrrrrrrrrrrrrrrrrrrrrrrrrrrrrr",
"rrrrrrrrrrrrrrrrrrrrrrrrrrrrrrrrrrrrrrrrrrrrrrrrrrrrrrrrrrrrrrrr",
"rrrrrrrrrrrrrrrrrrrrrrrrrrrrrrrrrrrrrrrrrrrrrrrrrrrrrrr77rrrrrrr",
"rrrrrrrrrrrrrrrrrrrrrrrrrrrrrrrrrrrrrrrrrrrrrrrrrrrrr7r77rrrrrrr",
"rrrrrrrrrrrrrrrrrrrrrrrrrrrrrrrrrrrrrrrrrrrrrrrrrrrrr7r77rrrrrrr",
"rrrrrrrrrrrrrrrrrrrrrrr7rrrrrrrrrrrrrrrrrrrrrrrrrrr777r77rrrrrrr",
"rrrrrrrrrrrrrrrrrrrr7rr777rrrrrr----:r::rrrrrrrrrrrrrrrrrrrrrrrr",
"rrrrrr7rrrrrrrrrrrrr7rr777rrr---:::33:33:rrrrrrrrrrrrrrrrrrrrrrr",
"rrrrrr7rrrrrrrrrrrrr7rr777---:33333333333:rrrrrrrrrrrrrrrrrrrrrr",
"rrrrrr777rrrrrrrrrrrrrrrr-:::3:3333333:333:rrrrrrrrrrrrrrrrrrrrr",
"rrrrrrrrrrrrrrrrrrrrrrrr-:33333::3333336333:rrrrrrrrrrrrrrrrrrrr",
"rrrrrrrrrrrrrrrrrrrrrrrr--3:3333336633336333:rrrr7rrrrrrrrrrrrrr",
"rrrrrrrrrrrrrrrrrrrrrrrrr-:333333333363-3333:rrrr7rrrrrrrrrrrrrr",
"rrrrrrrrrrrrrrrrrrrrrrrr-:33:::36363336:-3366:rrr7rrrrrrrrrrrrrr",
"rrrrrrrrrrrrrrrrrrrrrrr-:333::3333-63333:-366:rrr77rrrrrrrrrrrrr",
"rrrrrrrrrrrrrrrrrrrrrrr--33:-:333-8---333-3333-rrrrrrrrrrrrrrrrr",
"rrrrrrrrrrrrrrrrrrrrrrrr-=:--::33-q888----:---rrrrrrrrrrrrrrrrrr",
"rrrrrrrrrrrrrrrrrrrrrrrrr=:---::3-qqqq8888:3:rrrrrrrrrrrrrrrrrrr",
"rrrrrrrrrrrrrrrrrrrrrrrr=:----qq33qXXqqqXX83:rrrrrrrrrrrrrrrrrrr",
"rrrrrrrrrrr77rrrrrrrrrrrr=----wq33qt qqqt 8333rrrrrrrrrrrrrrrrrr",
"rrrrrrrrrrr77r77rrrrrrrr====--wq-3qt#qqqt#q-3rrrrrrrrrrrrrrrrrrr",
"rrrrrrrrrrr77r77rrrrrrrrr====--q-3wwwweeewq-rrrrrrrrrrrrrrrrrrrr",
"rrrrrrrrrr777r77rrrrrrrrrrr===----weeeeeeewrrrrrrrrrrrrrrrrrrrrr",
"rrrrrrrrrrrrrrrrrrrrrrrrrrrrr====weeeeeewwrrrrrrrrrrrrrrrrrrrrrr",
"rrrrrrrrrrrrrrrrrrrrrrrrrrooooo=>oeeeeee9rrrrrrrrrrrrrrrrrrrrrrr",
"rrrrrrrrrrrrrrrrrrrrrrrrOooooo.@>>O5555rrrrrrrrrrrrrrrrrrrrrrrrr",
"rrrrrrrrrrrrrrrrrrrrrrroooooooo@@>o88Oorrrrrrrrrrrrrrrrrrrrrrrrr",
"rrrrrrrrrrrrrrrrrrrrrrwOoooo..oo@@o%o@Orrrrrrrrr77rrrrrrrrrrrrrr",
"rrrrrrrrrrrrrrrrrrrrrewqo.o....o@<o$o+@Orrrrrrrr77rrrrrrrrrrrrrr",
"rrrrrrrrrrrrrrrrrrrrweewwo@....o@o$$o+OOrrrrrrrr77r77rrrrrrrrrrr",
"rrrrrrrrrrrrrrrrrrrwweew..@@...oo,$$oOOwrrrrrrrrrrrrrrrrrrrrrrrr",
"rrrrrrrrrrrrrrrrrrrwwwwwwoooo..oo;,o@Oqwrrrrrrrrrrrrrrrrrrrrrrrr",
"rrrrrrrrrrrrrrrrrrrrwwwwwOoo...<$;;o@Oqeerrrrrrrrrrrrrrrrrrrrrrr",
"rrrrrrrrrrrrrrrrrrr..wwqq@@o..oo$$$oOOqwerrrrrrrrrrrrrrrrrrrrrrr",
"rrrrrrrrrrrrrrrrr.....O@@@@oooo*&&&oooqwwrrrrrrrrrrrrrrrrrrrrrrr",
"rrrrrrrrrrrrrrrr.....@@O@@@@<o***&&ooooqrrrrrrrrrrrrrrrrrrrrrrrr",
"rrrrrrrrrrrrrrrr......@@@@@@@o<<2222Ooor7rrrrr7rrrrrrrrrrrrrrrrr",
"rrrrrrrrrrrrrrrrr.....oo>@<>o<<222222ooo7rr7rr7rrrrrrrrrrrrrrrrr",
"rrrrrrrrrrrrrrrrrrrr.oooo>oo&$22224422oo7rr7rr7rrrrrrrrrrrrrrrrr",
"rrrrrrrrrrrrrrrrrrrrrrrroo>o&%022444222orrr7rr7rrrrrrrrrrrrrrrrr",
"rrrrrrrrrr7rrrrrrrrrrrr&&oo&&&$02444422orrrrrrrrrrrrrrrrrrrrrrrr",
"rrrrrrrrrr7rrrrrrrrrrrr&&&&&=%%02244222orrrrrrrrrrrrrrrrrrrrrrrr",
"rrrrrrrrrr777rrrrrrrrrrr$$&==%,1222422orrrrrrrrrrrrrrrrrrrrrrrrr",
"rrrrrrrrrrrrrrrrrrrrrrrr,%$222rrr<<4<rrrrrrrrrrrrrrrrrrrrrrrrrrr",
"rrrrrrrrrrrrrrrrrrrrrrrrr%$22rrrrrrrrrrrrrrrrrrrrrrrrrrrrrrrrrrr",
"rrrrrrrrrrrrrrrrrrrrrrrrrqqqrrrrrrrrrrrrrrrrrrrrrrrrrrrrrrrrrrrr",
"rrrrrrrrrrrrrrrrrrrrrrrr$%,,,%rrrrrrrrrrrrrrrrrrrrrrrrrrrrrrrrrr",
"rrrrrrrrrrrrrrrrrrrrrrrr$%,&,rrrrrrrrrrrrrrrrrrrrrrrrrrrrrrrrrrr",
"rrrrrrrrrrrrrrrrrrrrrrrr&&===rrrrrrrrrrrrrrrrrrrrrrrrrrrrrrrrrrr",
"r77rrrrrrrrrrrrrrrrrrrrr&&&&$$rrrrrrrrrrrrrrrrrrrrrrrrrrrrrrrrrr",
"r77rrrr777777rrrr77777rr&&&$%,,777rrrrrrr7777rrrrr7777rrrrrrr7rr",
"r77rrrr777777rrrr77777rr&&&$,%%777rrrrrrr7777rrrrr7777rrrrrrr7rr",
"rrr7777rrrrrrr77rrrrrr7777rrr7rrrrrr7777rrrrrr77rrrrrr777777rrrr"
};
