/* XPM */
static char *result[] = {
/* columns rows colors chars-per-pixel */
"64 64 29 1 ",
"  c black",
". c #0F0D18",
"X c #3E231E",
"o c #161323",
"O c #1A172A",
"+ c #231F37",
"@ c #2E2929",
"# c #363330",
"$ c #3E3A36",
"% c #462924",
"& c #51302A",
"* c #5D352E",
"= c #663931",
"- c #744732",
"; c #322C51",
": c #514B45",
"> c #8F442C",
", c #9E4C33",
"< c #8F563B",
"1 c #AB5236",
"2 c #93683E",
"3 c #A27058",
"4 c #3CA370",
"5 c #B6814C",
"6 c #C18950",
"7 c #D1975C",
"8 c #D9A066",
"9 c #8FDE5D",
"0 c #B2B2B2",
/* pixels */
"9999999999999999999999999999999999999999999999999999999999999999",
"9999999999999999499999999999999999999999999999999999999999999999",
"9999999999999999499999999999999999999999999999999999999999994999",
"9999999999999499499999999999999999999999999999999999999999999499",
"9999999999999999999999999999999999999999999999999999949999999949",
"9999999999999999999999999999999999999999999999999999949999999999",
"9999999999999999999999999999999999999999999999999999999999999999",
"9999999999999999999999999999999999999499999999999999999999999999",
"9999999999999999999999999999999999999499999999999999999999999999",
"9999999999999999999999999999999999449499999999999999999999999999",
"9999999999999999999999999999999999999999999999999999999999999999",
"9999999999999999999999999999999999999999999999999999999999999999",
"9999999999999999999999999999999999999999999999999999999999999999",
"9999999999999999999999999999999999999999999999999999999449999999",
"9999999999999999999999999999999999999999999999999999949449999999",
"9999999999999999999999999999999999999999999999999999949449999999",
"9999999999999999999999949999999999999999999999999994449449999999",
"9999999999999999999949944499999=====-----99999999999999999999999",
"99999949999999999999499444999==<<<<<<<<<<-9999999999999999999999",
"999999499999999999994994449==-<-<<<<<<<-<<-999999999999999999999",
"99999944499999999999999999=--<<<--<<<<<<3<-999999999999999999999",
"9999999999999999999999999=-<<<<<<<<33<<<<3<-99999999999999999999",
"999999999999999999999999*-<<-<<<<<<<<<3<=<<<-9999499999999999999",
"9999999999999999999999999*=<<---<3<<<<<3<=<<-9999499999999999999",
"9999999999999999999999999=-<<--<<<=3<<<<-=<<3-999499999999999999",
"999999999999999999999999=-<<-=-<<<<=<<<<<-=<3-999449999999999999",
"999999999999999999999999*=<-==--<<=6=<<<<-=<<-999999999999999999",
"99999999999999999999999999*-===--<=66==<<<=-==999999999999999999",
"99999999999999999999999999*====66<=6XX6===X-<=999999999999999999",
"9999999999999999999999999*-====76<<60 6660 -<9999999999999999999",
"99999999999449999999999999***==76<<60@6660@=<9999999999999999999",
"9999999999944944999999999*****==6=<777788876=9999999999999999999",
"9999999999944944999999999999***===<788888887=9999999999999999999",
"99999999994449449999999999999oo**==88888877999999999999999999999",
"99999999999999999999999999997ooooo=oo888859999999999999999999999",
"9999999999999999999999999997ooooo.+;;O22oo9999999999999999999999",
"9999999999999999999999999977o..ooo+;oo##oo9999999999999999999999",
"999999999999999999999999997o...o.ooo+o##oo9999999999999999999999",
"999999999999999999999999997o.....7766o##o99999994499999999999999",
"99999999999999999999999999o..o..7887666#o99999994499999999999999",
"9999999999999999999999999oo.oo.788887666o99999994494499999999999",
"99999999999999999999999.o...oO7888887766999999999999999999999999",
"9999999999999999999999......Oooo7777776o999999999999999999999999",
"9999999999999999999999o...oooo;+oo7766o9999999999999999999999999",
"99999999999999999999ooo.oooooooo;>o%&oo9999999999999999999999999",
"9999999999999999999oooooooo+++ooo;,>>oo9999999999999999999999999",
"9999999999999999999oooo+++++++ooo>>,,,o9999999999999999999999999",
"9999999999999999999ooooooo++oo>o,1,,11,,499999499999999999999999",
"999999999999999999999oooooooooo>,,,1111,,99499499999999999999999",
"99999999999999999999>>oooooooo,>,,,11111,,9499499999999999999999",
"9999999999999999999##>>,,,11,,1>>,,111111,9499499999999999999999",
"999999999949999999%##6>,,,,,11>9o>,,11111>9999999999999999999999",
"99999999994999999%%$$6>>,,111,499o>,,,11,>9999999999999999999999",
"999999999944499%%%%%::66,,,,,999999>,,,,,>9999999999999999999999",
"999999999999999%%%%*%%$999999999999>,,,,,>9999999999999999999999",
"9999999999999999%%%%**99999999999999>>>,>99999999999999999999999",
"9999999999999999%%%##9999999999999999666999999999999999999999999",
"99999999999999999#$::999999999999999#$:::$9999999999999999999999",
"99999999999999999#$$:999999999999999#$:%:99999999999999999999999",
"999999999999999999999999999999999999%%***99999999999999999999999",
"944999999999999999999999999999999999%%%%##9999999999999999999999",
"944999944444499994444499999999444499%%%#$::449999944449999999499",
"944999944444499994444499999999444499%%%#:$$449999944449999999499",
"9994444999999944999999444499949999994444999999449999994444449999"
};
