/* XPM */
static char *result[] = {
/* columns rows colors chars-per-pixel */
"64 64 31 1 ",
"  c black",
". c #0F0D18",
"X c #3E231E",
"o c #161323",
"O c #1A172A",
"+ c #1E1A2E",
"@ c #231F37",
"# c #2E2929",
"$ c #363330",
"% c #3E3A36",
"& c #462924",
"* c #51302A",
"= c #5D352E",
"- c #663931",
"; c #46413C",
": c #744732",
"> c #322C51",
", c #514B45",
"< c #8F442C",
"1 c #9E4C33",
"2 c #8F563B",
"3 c #AB5236",
"4 c #93683E",
"5 c #A27058",
"6 c #3CA370",
"7 c #B6814C",
"8 c #C18950",
"9 c #D1975C",
"0 c #D9A066",
"q c #8FDE5D",
"w c #B2B2B2",
/* pixels */
"qqqqqqqqqqqqqqqqqqqqqqqqqqqqqqqqqqqqqqqqqqqqqqqqqqqqqqqqqqqqqqqq",
"qqqqqqqqqqqqqqqq6qqqqqqqqqqqqqqqqqqqqqqqqqqqqqqqqqqqqqqqqqqqqqqq",
"qqqqqqqqqqqqqqqq6qqqqqqqqqqqqqqqqqqqqqqqqqqqqqqqqqqqqqqqqqqq6qqq",
"qqqqqqqqqqqqq6qq6qqqqqqqqqqqqqqqqqqqqqqqqqqqqqqqqqqqqqqqqqqqq6qq",
"qqqqqqqqqqqqqqqqqqqqqqqqqqqqqqqqqqqqqqqqqqqqqqqqqqqqq6qqqqqqqq6q",
"qqqqqqqqqqqqqqqqqqqqqqqqqqqqqqqqqqqqqqqqqqqqqqqqqqqqq6qqqqqqqqqq",
"qqqqqqqqqqqqqqqqqqqqqqqqqqqqqqqqqqqqqqqqqqqqqqqqqqqqqqqqqqqqqqqq",
"qqqqqqqqqqqqqqqqqqqqqqqqqqqqqqqqqqqqq6qqqqqqqqqqqqqqqqqqqqqqqqqq",
"qqqqqqqqqqqqqqqqqqqqqqqqqqqqqqqqqqqqq6qqqqqqqqqqqqqqqqqqqqqqqqqq",
"qqqqqqqqqqqqqqqqqqqqqqqqqqqqqqqqqq66q6qqqqqqqqqqqqqqqqqqqqqqqqqq",
"qqqqqqqqqqqqqqqqqqqqqqqqqqqqqqqqqqqqqqqqqqqqqqqqqqqqqqqqqqqqqqqq",
"qqqqqqqqqqqqqqqqqqqqqqqqqqqqqqqqqqqqqqqqqqqqqqqqqqqqqqqqqqqqqqqq",
"qqqqqqqqqqqqqqqqqqqqqqqqqqqqqqqqqqqqqqqqqqqqqqqqqqqqqqqqqqqqqqqq",
"qqqqqqqqqqqqqqqqqqqqqqqqqqqqqqqqqqqqqqqqqqqqqqqqqqqqqqq66qqqqqqq",
"qqqqqqqqqqqqqqqqqqqqqqqqqqqqqqqqqqqqqqqqqqqqqqqqqqqqq6q66qqqqqqq",
"qqqqqqqqqqqqqqqqqqqqqqqqqqqqqqqqqqqqqqqqqqqqqqqqqqqqq6q66qqqqqqq",
"qqqqqqqqqqqqqqqqqqqqqqq6qqqqqqqqqqqqqqqqqqqqqqqqqqq666q66qqqqqqq",
"qqqqqqqqqqqqqqqqqqqq6qq666qqqq----:q::qqqqqqqqqqqqqqqqqqqqqqqqqq",
"qqqqqq6qqqqqqqqqqqqq6qq666qq--:::22:22:qqqqqqqqqqqqqqqqqqqqqqqqq",
"qqqqqq6qqqqqqqqqqqqq6qq666--22222222222:qqqqqqqqqqqqqqqqqqqqqqqq",
"qqqqqq666qqqqqqqqqqqqqqq--:2:2222222:222:qqqqqqqqqqqqqqqqqqqqqqq",
"qqqqqqqqqqqqqqqqqqqqqqq-::222::222222522:qqqqqqqqqqqqqqqqqqqqqqq",
"qqqqqqqqqqqqqqqqqqqqqq-:22222222552222522:qqqqqqq6qqqqqqqqqqqqqq",
"qqqqqqqqqqqqqqqqqqqqqqq-2:22222222252-222:qqqqqqq6qqqqqqqqqqqqqq",
"qqqqqqqqqqqqqqqqqqqqqqq-22:::25222225:222:qqqqqqq6qqqqqqqqqqqqqq",
"qqqqqqqqqqqqqqqqqqqqqq-:22::222-52222:-225:qqqqqq66qqqqqqqqqqqqq",
"qqqqqqqqqqqqqqqqqqqqq-:22:-:222--52222:-25:qqqqqqqqqqqqqqqqqqqqq",
"qqqqqqqqqqqqqqqqqqqqqq-2:--::22-8---222-222-qqqqqqqqqqqqqqqqqqqq",
"qqqqqqqqqqqqqqqqqqqqqqq=:---::2-8888----:--qqqqqqqqqqqqqqqqqqqqq",
"qqqqqqqqqqqqqqqqqqqqqq=:----88228XX888XX:2qqqqqqqqqqqqqqqqqqqqqq",
"qqqqqqqqqqq66qqqqqqqqqq=----98228w 888w :2qqqqqqqqqqqqqqqqqqqqqq",
"qqqqqqqqqqq66q66qqqqqq====--98-28w#888w#822qqqqqqqqqqqqqqqqqqqqq",
"qqqqqqqqqqq66q66qqqqqqq====--8-2999900098-qqqqqqqqqqqqqqqqqqqqqq",
"qqqqqqqqqq666q66qqqqqqqqq===----900000009qqqqqqqqqqqqqqqqqqqqqqq",
"qqqqqqqqqqqqqqqqqqqqqqqqqqq====900000099qqqqqqqqqqqqqqqqqqqqqqqq",
"qqqqqqqqqqqqqqqqqqqqqqqqqqqqq=oo0000007qqqqqqqqqqqqqqqqqqqqqqqqq",
"qqqqqqqqqqqqqqqqqqqqqqqqqqqq..@>o4444$oqqqqqqqqqqqqqqqqqqqqqqqqq",
"qqqqqqqqqqqqqqqqqqqqqqqqqqq...@>>o%%$$oOqqqqqqqqqqqqqqqqqqqqqqqq",
"qqqqqqqqqqqqqqqqqqqqqqqqqq..oo@@>o$%%oOOOqqqqqqq66qqqqqqqqqqqqqq",
"qqqqqqqqqqqqqqqqqqqqqqqqq..oooo@@>o$%oO+@@qqqqqq66qqqqqqqqqqqqqq",
"qqqqqqqqqqqqqqqqqqqqqqqq.@oooooo@<o$$oO@+>@qqqqq66q66qqqqqqqqqqq",
"qqqqqqqqqqqqqqqqqqqqqqqq.@@ooo.+o@o,$o@@o@>qqqqqqqqqqqqqqqqqqqqq",
"qqqqqqqqqqqqqqqqqqqqqqqq88@@o.+oooo,;o@Oo@8qqqqqqqqqqqqqqqqqqqqq",
"qqqqqqqqqqqqqqqqqqqqqqqq8988o.+oo<o$,oOOO889qqqqqqqqqqqqqqqqqqqq",
"qqqqqqqqqqqqqqqqqqqqqqqq89998+ooooo$$;ooo889qqqqqqqqqqqqqqqqqqqq",
"qqqqqqqqqqqqqqqqqqqqqqq890099ooooo,$$$ooo8990qqqqqqqqqqqqqqqqqqq",
"qqqqqqqqqqqqqqqqqqqqqqq89009oOOo<o***&oOo8990qqqqqqqqqqqqqqqqqqq",
"qqqqqqqqqqqqqqqqqqqqqqq89009OO@@@o**&&oOoo899q6qqqqqqqqqqqqqqqqq",
"qqqqqqqqqqqqqqqqqqqqqqq89099O@@@>o<111<oOo88qq6qqqqqqqqqqqqqqqqq",
"qqqqqqqqqqqqqqqqqqqqqqqq8999O@><o1133<1<ooo6qq6qqqqqqqqqqqqqqqqq",
"qqqqqqqqqqqqqqqqqqqqqqqq888O@>>>o1333<11ooo6qq6qqqqqqqqqqqqqqqqq",
"qqqqqqqqqq6qqqqqqqqqqqqqqqo@@@oo1333<1131ooqqqqqqqqqqqqqqqqqqqqq",
"qqqqqqqqqq6qqqqqqqqqqqqqqqqooo11333<113331qqqqqqqqqqqqqqqqqqqqqq",
"qqqqqqqqqq666qqqqqqqqqqqqqq<<11331q<11331qqqqqqqqqqqqqqqqqqqqqqq",
"qqqqqqqqqqqqqqqqqqqqqqqqqqq<<1111qq<11131qqqqqqqqqqqqqqqqqqqqqqq",
"qqqqqqqqqqqqqqqqqqqqqqqqqqqq<<11qqqq<<3<qqqqqqqqqqqqqqqqqqqqqqqq",
"qqqqqqqqqqqqqqqqqqqqqqqqqqqq888qqqqq888qqqqqqqqqqqqqqqqqqqqqqqqq",
"qqqqqqqqqqqqqqqqqqqqqqqqqqq%,,,%$qq$%,,,%qqqqqqqqqqqqqqqqqqqqqqq",
"qqqqqqqqqqqqqqqqqqqqqqqqqqq%,&,%$qq$%,&,qqqqqqqqqqqqqqqqqqqqqqqq",
"qqqqqqqqqqqqqqqqqqqqqqqqqqq&===&&qq&&===qqqqqqqqqqqqqqqqqqqqqqqq",
"q66qqqqqqqqqqqqqqqqqqqqqqqq&$$$&qqq&&&&$$qqqqqqqqqqqqqqqqqqqqqqq",
"q66qqqq666666qqqq66666qqqqq$,,,$66q&&&$%,,666qqqqq6666qqqqqqq6qq",
"q66qqqq666666qqqq66666qqqqq,%%%,66q&&&$,%%666qqqqq6666qqqqqqq6qq",
"qqq6666qqqqqqq66qqqqqq6666qqq6qqqqqq6666qqqqqq66qqqqqq666666qqqq"
};
